<?xml version="1.0" encoding="UTF-8" standalone="no"?>
<!DOCTYPE svg PUBLIC "-//W3C//DTD SVG 1.1//EN"
 "http://www.w3.org/Graphics/SVG/1.1/DTD/svg11.dtd">
<!-- Generated by graphviz version 13.0.1 (20250615.1724)
 -->
<!-- Pages: 1 -->
<svg width="1487pt" height="442pt"
 viewBox="0.00 0.00 1487.00 442.00" xmlns="http://www.w3.org/2000/svg" xmlns:xlink="http://www.w3.org/1999/xlink">
<g id="graph0" class="graph" transform="scale(1 1) rotate(0) translate(4 437.91)">
<polygon fill="white" stroke="none" points="-4,4 -4,-437.91 1483.04,-437.91 1483.04,4 -4,4"/>
<!-- APP_0 -->
<g id="node1" class="node">
<title>APP_0</title>
<ellipse fill="none" stroke="black" cx="338" cy="-404.92" rx="338" ry="28.99"/>
<text xml:space="preserve" text-anchor="middle" x="338" y="-408.12" font-family="Times New Roman,serif" font-size="14.00">APP</text>
<text xml:space="preserve" text-anchor="middle" x="338" y="-391.62" font-family="Times New Roman,serif" font-size="14.00">APP(LAM(Var(&#39;x&#39;), EX(Var(&#39;x&#39;), Var(&#39;JAM&#39;))), APP(LAM(Var(&#39;z&#39;), Var(&#39;z&#39;)), Var(&#39;y&#39;)))</text>
</g>
<!-- LAM_0 -->
<g id="node3" class="node">
<title>LAM_0</title>
<ellipse fill="none" stroke="black" cx="338" cy="-310.94" rx="166.17" ry="28.99"/>
<text xml:space="preserve" text-anchor="middle" x="338" y="-314.14" font-family="Times New Roman,serif" font-size="14.00">LAM</text>
<text xml:space="preserve" text-anchor="middle" x="338" y="-297.64" font-family="Times New Roman,serif" font-size="14.00">LAM(Var(&#39;x&#39;), EX(Var(&#39;x&#39;), Var(&#39;JAM&#39;)))</text>
</g>
<!-- APP_0&#45;&gt;LAM_0 -->
<g id="edge1" class="edge">
<title>APP_0&#45;&gt;LAM_0</title>
<path fill="none" stroke="black" d="M338,-375.57C338,-368.06 338,-359.79 338,-351.79"/>
<polygon fill="black" stroke="black" points="341.5,-351.87 338,-341.87 334.5,-351.87 341.5,-351.87"/>
</g>
<!-- APP_1 -->
<g id="node2" class="node">
<title>APP_1</title>
<ellipse fill="none" stroke="black" cx="848" cy="-404.92" rx="154.5" ry="28.99"/>
<text xml:space="preserve" text-anchor="middle" x="848" y="-408.12" font-family="Times New Roman,serif" font-size="14.00">APP</text>
<text xml:space="preserve" text-anchor="middle" x="848" y="-391.62" font-family="Times New Roman,serif" font-size="14.00">APP(LAM(Var(&#39;z&#39;), Var(&#39;z&#39;)), Var(&#39;y&#39;))</text>
</g>
<!-- VAR_0 -->
<g id="node5" class="node">
<title>VAR_0</title>
<ellipse fill="none" stroke="black" cx="338" cy="-216.96" rx="38.89" ry="28.99"/>
<text xml:space="preserve" text-anchor="middle" x="338" y="-220.16" font-family="Times New Roman,serif" font-size="14.00">VAR</text>
<text xml:space="preserve" text-anchor="middle" x="338" y="-203.66" font-family="Times New Roman,serif" font-size="14.00">Var(&#39;y&#39;)</text>
</g>
<!-- LAM_0&#45;&gt;VAR_0 -->
<g id="edge2" class="edge">
<title>LAM_0&#45;&gt;VAR_0</title>
<path fill="none" stroke="black" d="M338,-281.59C338,-274.07 338,-265.81 338,-257.8"/>
<polygon fill="black" stroke="black" points="341.5,-257.88 338,-247.88 334.5,-257.88 341.5,-257.88"/>
</g>
<!-- LAM_1 -->
<g id="node4" class="node">
<title>LAM_1</title>
<ellipse fill="none" stroke="black" cx="1119" cy="-404.92" rx="98.29" ry="28.99"/>
<text xml:space="preserve" text-anchor="middle" x="1119" y="-408.12" font-family="Times New Roman,serif" font-size="14.00">LAM</text>
<text xml:space="preserve" text-anchor="middle" x="1119" y="-391.62" font-family="Times New Roman,serif" font-size="14.00">LAM(Var(&#39;z&#39;), Var(&#39;z&#39;))</text>
</g>
<!-- UNBOUND_0 -->
<g id="node7" class="node">
<title>UNBOUND_0</title>
<ellipse fill="none" stroke="black" cx="338" cy="-122.97" rx="59.04" ry="28.99"/>
<text xml:space="preserve" text-anchor="middle" x="338" y="-126.17" font-family="Times New Roman,serif" font-size="14.00">UNBOUND</text>
<text xml:space="preserve" text-anchor="middle" x="338" y="-109.67" font-family="Times New Roman,serif" font-size="14.00">Var(&#39;y&#39;)</text>
</g>
<!-- VAR_0&#45;&gt;UNBOUND_0 -->
<g id="edge3" class="edge">
<title>VAR_0&#45;&gt;UNBOUND_0</title>
<path fill="none" stroke="black" d="M338,-187.61C338,-180.09 338,-171.83 338,-163.82"/>
<polygon fill="black" stroke="black" points="341.5,-163.9 338,-153.9 334.5,-163.9 341.5,-163.9"/>
</g>
<!-- VAR_1 -->
<g id="node6" class="node">
<title>VAR_1</title>
<ellipse fill="none" stroke="black" cx="1289" cy="-404.92" rx="53.74" ry="28.99"/>
<text xml:space="preserve" text-anchor="middle" x="1289" y="-408.12" font-family="Times New Roman,serif" font-size="14.00">VAR</text>
<text xml:space="preserve" text-anchor="middle" x="1289" y="-391.62" font-family="Times New Roman,serif" font-size="14.00">Var(&#39;JAM&#39;)</text>
</g>
<!-- EX_0 -->
<g id="node9" class="node">
<title>EX_0</title>
<ellipse fill="none" stroke="black" cx="338" cy="-28.99" rx="157.68" ry="28.99"/>
<text xml:space="preserve" text-anchor="middle" x="338" y="-32.19" font-family="Times New Roman,serif" font-size="14.00">EX</text>
<text xml:space="preserve" text-anchor="middle" x="338" y="-15.69" font-family="Times New Roman,serif" font-size="14.00">EX(&lt;State.VAC: &#39;VAC&#39;&gt;, Var(&#39;JAM&#39;))</text>
</g>
<!-- UNBOUND_0&#45;&gt;EX_0 -->
<g id="edge4" class="edge">
<title>UNBOUND_0&#45;&gt;EX_0</title>
<path fill="none" stroke="black" d="M338,-93.63C338,-86.11 338,-77.85 338,-69.84"/>
<polygon fill="black" stroke="black" points="341.5,-69.92 338,-59.92 334.5,-69.92 341.5,-69.92"/>
</g>
<!-- UNBOUND_1 -->
<g id="node8" class="node">
<title>UNBOUND_1</title>
<ellipse fill="none" stroke="black" cx="1420" cy="-404.92" rx="59.04" ry="28.99"/>
<text xml:space="preserve" text-anchor="middle" x="1420" y="-408.12" font-family="Times New Roman,serif" font-size="14.00">UNBOUND</text>
<text xml:space="preserve" text-anchor="middle" x="1420" y="-391.62" font-family="Times New Roman,serif" font-size="14.00">Var(&#39;JAM&#39;)</text>
</g>
</g>
</svg>
