<?xml version="1.0" encoding="UTF-8" standalone="no"?>
<!DOCTYPE svg PUBLIC "-//W3C//DTD SVG 1.1//EN"
 "http://www.w3.org/Graphics/SVG/1.1/DTD/svg11.dtd">
<!-- Generated by graphviz version 13.0.1 (20250615.1724)
 -->
<!-- Pages: 1 -->
<svg width="806pt" height="724pt"
 viewBox="0.00 0.00 806.00 724.00" xmlns="http://www.w3.org/2000/svg" xmlns:xlink="http://www.w3.org/1999/xlink">
<g id="graph0" class="graph" transform="scale(1 1) rotate(0) translate(4 719.86)">
<polygon fill="white" stroke="none" points="-4,4 -4,-719.86 802.34,-719.86 802.34,4 -4,4"/>
<!-- ROOT_0 -->
<g id="node1" class="node">
<title>ROOT_0</title>
<ellipse fill="none" stroke="black" cx="293.45" cy="-686.87" rx="293.45" ry="28.99"/>
<text xml:space="preserve" text-anchor="middle" x="293.45" y="-690.07" font-family="Times New Roman,serif" font-size="14.00">ROOT</text>
<text xml:space="preserve" text-anchor="middle" x="293.45" y="-673.57" font-family="Times New Roman,serif" font-size="14.00">ROOT(SUB(Var(&#39;x&#39;), Value(42)), NODE(Value(3), Var(&#39;MEM&#39;), Var(&#39;x&#39;)))</text>
</g>
<!-- SUB_0 -->
<g id="node2" class="node">
<title>SUB_0</title>
<ellipse fill="none" stroke="black" cx="293.45" cy="-592.89" rx="106.24" ry="28.99"/>
<text xml:space="preserve" text-anchor="middle" x="293.45" y="-596.09" font-family="Times New Roman,serif" font-size="14.00">SUB</text>
<text xml:space="preserve" text-anchor="middle" x="293.45" y="-579.59" font-family="Times New Roman,serif" font-size="14.00">SUB(Var(&#39;x&#39;), Value(42))</text>
</g>
<!-- ROOT_0&#45;&gt;SUB_0 -->
<g id="edge1" class="edge">
<title>ROOT_0&#45;&gt;SUB_0</title>
<path fill="none" stroke="black" d="M293.45,-657.52C293.45,-650 293.45,-641.74 293.45,-633.74"/>
<polygon fill="black" stroke="black" points="296.95,-633.81 293.45,-623.81 289.95,-633.81 296.95,-633.81"/>
</g>
<!-- BIND_0 -->
<g id="node3" class="node">
<title>BIND_0</title>
<ellipse fill="none" stroke="black" cx="293.45" cy="-498.91" rx="63.82" ry="28.99"/>
<text xml:space="preserve" text-anchor="middle" x="293.45" y="-502.11" font-family="Times New Roman,serif" font-size="14.00">BIND</text>
<text xml:space="preserve" text-anchor="middle" x="293.45" y="-485.61" font-family="Times New Roman,serif" font-size="14.00">x→Value(42)</text>
</g>
<!-- SUB_0&#45;&gt;BIND_0 -->
<g id="edge2" class="edge">
<title>SUB_0&#45;&gt;BIND_0</title>
<path fill="none" stroke="black" d="M293.45,-563.54C293.45,-556.02 293.45,-547.76 293.45,-539.75"/>
<polygon fill="black" stroke="black" points="296.95,-539.83 293.45,-529.83 289.95,-539.83 296.95,-539.83"/>
</g>
<!-- NODE_0 -->
<g id="node4" class="node">
<title>NODE_0</title>
<ellipse fill="none" stroke="black" cx="293.45" cy="-404.92" rx="160.87" ry="28.99"/>
<text xml:space="preserve" text-anchor="middle" x="293.45" y="-408.12" font-family="Times New Roman,serif" font-size="14.00">NODE</text>
<text xml:space="preserve" text-anchor="middle" x="293.45" y="-391.62" font-family="Times New Roman,serif" font-size="14.00">NODE(Value(3), Var(&#39;MEM&#39;), Var(&#39;x&#39;))</text>
</g>
<!-- BIND_0&#45;&gt;NODE_0 -->
<g id="edge3" class="edge">
<title>BIND_0&#45;&gt;NODE_0</title>
<path fill="none" stroke="black" d="M293.45,-469.56C293.45,-462.04 293.45,-453.78 293.45,-445.77"/>
<polygon fill="black" stroke="black" points="296.95,-445.85 293.45,-435.85 289.95,-445.85 296.95,-445.85"/>
</g>
<!-- VALUE_0 -->
<g id="node5" class="node">
<title>VALUE_0</title>
<ellipse fill="none" stroke="black" cx="293.45" cy="-310.94" rx="44.19" ry="28.99"/>
<text xml:space="preserve" text-anchor="middle" x="293.45" y="-314.14" font-family="Times New Roman,serif" font-size="14.00">VALUE</text>
<text xml:space="preserve" text-anchor="middle" x="293.45" y="-297.64" font-family="Times New Roman,serif" font-size="14.00">Value(3)</text>
</g>
<!-- NODE_0&#45;&gt;VALUE_0 -->
<g id="edge4" class="edge">
<title>NODE_0&#45;&gt;VALUE_0</title>
<path fill="none" stroke="black" d="M293.45,-375.57C293.45,-368.06 293.45,-359.79 293.45,-351.79"/>
<polygon fill="black" stroke="black" points="296.95,-351.87 293.45,-341.87 289.95,-351.87 296.95,-351.87"/>
</g>
<!-- VAR_0 -->
<g id="node7" class="node">
<title>VAR_0</title>
<ellipse fill="none" stroke="black" cx="293.45" cy="-216.96" rx="57.98" ry="28.99"/>
<text xml:space="preserve" text-anchor="middle" x="293.45" y="-220.16" font-family="Times New Roman,serif" font-size="14.00">VAR</text>
<text xml:space="preserve" text-anchor="middle" x="293.45" y="-203.66" font-family="Times New Roman,serif" font-size="14.00">Var(&#39;MEM&#39;)</text>
</g>
<!-- VALUE_0&#45;&gt;VAR_0 -->
<g id="edge5" class="edge">
<title>VALUE_0&#45;&gt;VAR_0</title>
<path fill="none" stroke="black" d="M293.45,-281.59C293.45,-274.07 293.45,-265.81 293.45,-257.8"/>
<polygon fill="black" stroke="black" points="296.95,-257.88 293.45,-247.88 289.95,-257.88 296.95,-257.88"/>
</g>
<!-- VALUE_1 -->
<g id="node6" class="node">
<title>VALUE_1</title>
<ellipse fill="none" stroke="black" cx="653.45" cy="-686.87" rx="48.97" ry="28.99"/>
<text xml:space="preserve" text-anchor="middle" x="653.45" y="-690.07" font-family="Times New Roman,serif" font-size="14.00">VALUE</text>
<text xml:space="preserve" text-anchor="middle" x="653.45" y="-673.57" font-family="Times New Roman,serif" font-size="14.00">Value(42)</text>
</g>
<!-- UNBOUND_0 -->
<g id="node9" class="node">
<title>UNBOUND_0</title>
<ellipse fill="none" stroke="black" cx="293.45" cy="-122.97" rx="59.04" ry="28.99"/>
<text xml:space="preserve" text-anchor="middle" x="293.45" y="-126.17" font-family="Times New Roman,serif" font-size="14.00">UNBOUND</text>
<text xml:space="preserve" text-anchor="middle" x="293.45" y="-109.67" font-family="Times New Roman,serif" font-size="14.00">Var(&#39;MEM&#39;)</text>
</g>
<!-- VAR_0&#45;&gt;UNBOUND_0 -->
<g id="edge6" class="edge">
<title>VAR_0&#45;&gt;UNBOUND_0</title>
<path fill="none" stroke="black" d="M293.45,-187.61C293.45,-180.09 293.45,-171.83 293.45,-163.82"/>
<polygon fill="black" stroke="black" points="296.95,-163.9 293.45,-153.9 289.95,-163.9 296.95,-163.9"/>
</g>
<!-- VAR_1 -->
<g id="node8" class="node">
<title>VAR_1</title>
<ellipse fill="none" stroke="black" cx="759.45" cy="-686.87" rx="38.89" ry="28.99"/>
<text xml:space="preserve" text-anchor="middle" x="759.45" y="-690.07" font-family="Times New Roman,serif" font-size="14.00">VAR</text>
<text xml:space="preserve" text-anchor="middle" x="759.45" y="-673.57" font-family="Times New Roman,serif" font-size="14.00">Var(&#39;x&#39;)</text>
</g>
<!-- RESOLVE_0 -->
<g id="node10" class="node">
<title>RESOLVE_0</title>
<ellipse fill="none" stroke="black" cx="293.45" cy="-28.99" rx="63.82" ry="28.99"/>
<text xml:space="preserve" text-anchor="middle" x="293.45" y="-32.19" font-family="Times New Roman,serif" font-size="14.00">RESOLVE</text>
<text xml:space="preserve" text-anchor="middle" x="293.45" y="-15.69" font-family="Times New Roman,serif" font-size="14.00">x→Value(42)</text>
</g>
<!-- UNBOUND_0&#45;&gt;RESOLVE_0 -->
<g id="edge7" class="edge">
<title>UNBOUND_0&#45;&gt;RESOLVE_0</title>
<path fill="none" stroke="black" d="M293.45,-93.63C293.45,-86.11 293.45,-77.85 293.45,-69.84"/>
<polygon fill="black" stroke="black" points="296.95,-69.92 293.45,-59.92 289.95,-69.92 296.95,-69.92"/>
</g>
</g>
</svg>
