<?xml version="1.0" encoding="UTF-8" standalone="no"?>
<!DOCTYPE svg PUBLIC "-//W3C//DTD SVG 1.1//EN"
 "http://www.w3.org/Graphics/SVG/1.1/DTD/svg11.dtd">
<!-- Generated by graphviz version 13.0.1 (20250615.1724)
 -->
<!-- Pages: 1 -->
<svg width="187pt" height="398pt"
 viewBox="0.00 0.00 187.00 398.00" xmlns="http://www.w3.org/2000/svg" xmlns:xlink="http://www.w3.org/1999/xlink">
<g id="graph0" class="graph" transform="scale(1 1) rotate(0) translate(4 393.95)">
<polygon fill="white" stroke="none" points="-4,4 -4,-393.95 182.54,-393.95 182.54,4 -4,4"/>
<!-- JAM_0 -->
<g id="node1" class="node">
<title>JAM_0</title>
<ellipse fill="none" stroke="black" cx="89.27" cy="-360.96" rx="37.3" ry="28.99"/>
<text xml:space="preserve" text-anchor="middle" x="89.27" y="-364.16" font-family="Times New Roman,serif" font-size="14.00">JAM</text>
<text xml:space="preserve" text-anchor="middle" x="89.27" y="-347.66" font-family="Times New Roman,serif" font-size="14.00">JAM()</text>
</g>
<!-- MEM_0 -->
<g id="node4" class="node">
<title>MEM_0</title>
<ellipse fill="none" stroke="black" cx="89.27" cy="-277.97" rx="43.16" ry="18"/>
<text xml:space="preserve" text-anchor="middle" x="89.27" y="-272.92" font-family="Times New Roman,serif" font-size="14.00">MEM_0</text>
</g>
<!-- JAM_0&#45;&gt;MEM_0 -->
<g id="edge1" class="edge">
<title>JAM_0&#45;&gt;MEM_0</title>
<path fill="none" stroke="black" d="M89.27,-331.63C89.27,-323.75 89.27,-315.2 89.27,-307.32"/>
<polygon fill="black" stroke="black" points="92.77,-307.57 89.27,-297.57 85.77,-307.57 92.77,-307.57"/>
</g>
<!-- ALIVE_0 -->
<g id="node2" class="node">
<title>ALIVE_0</title>
<ellipse fill="none" stroke="black" cx="89.27" cy="-194.97" rx="39.95" ry="28.99"/>
<text xml:space="preserve" text-anchor="middle" x="89.27" y="-198.17" font-family="Times New Roman,serif" font-size="14.00">ALIVE</text>
<text xml:space="preserve" text-anchor="middle" x="89.27" y="-181.67" font-family="Times New Roman,serif" font-size="14.00">Var(&#39;x&#39;)</text>
</g>
<!-- VAC_0 -->
<g id="node5" class="node">
<title>VAC_0</title>
<ellipse fill="none" stroke="black" cx="89.27" cy="-111.98" rx="38.56" ry="18"/>
<text xml:space="preserve" text-anchor="middle" x="89.27" y="-106.93" font-family="Times New Roman,serif" font-size="14.00">VAC_0</text>
</g>
<!-- ALIVE_0&#45;&gt;VAC_0 -->
<g id="edge3" class="edge">
<title>ALIVE_0&#45;&gt;VAC_0</title>
<path fill="none" stroke="black" d="M89.27,-165.65C89.27,-157.77 89.27,-149.22 89.27,-141.34"/>
<polygon fill="black" stroke="black" points="92.77,-141.59 89.27,-131.59 85.77,-141.59 92.77,-141.59"/>
</g>
<!-- EX_0 -->
<g id="node3" class="node">
<title>EX_0</title>
<ellipse fill="none" stroke="black" cx="89.27" cy="-28.99" rx="89.27" ry="28.99"/>
<text xml:space="preserve" text-anchor="middle" x="89.27" y="-32.19" font-family="Times New Roman,serif" font-size="14.00">EX</text>
<text xml:space="preserve" text-anchor="middle" x="89.27" y="-15.69" font-family="Times New Roman,serif" font-size="14.00">EX(Var(&#39;x&#39;), JAM())</text>
</g>
<!-- MEM_0&#45;&gt;ALIVE_0 -->
<g id="edge2" class="edge">
<title>MEM_0&#45;&gt;ALIVE_0</title>
<path fill="none" stroke="black" d="M89.27,-259.79C89.27,-252.7 89.27,-244.17 89.27,-235.68"/>
<polygon fill="black" stroke="black" points="92.77,-235.79 89.27,-225.79 85.77,-235.79 92.77,-235.79"/>
</g>
<!-- VAC_0&#45;&gt;EX_0 -->
<g id="edge4" class="edge">
<title>VAC_0&#45;&gt;EX_0</title>
<path fill="none" stroke="black" d="M89.27,-93.81C89.27,-86.72 89.27,-78.19 89.27,-69.7"/>
<polygon fill="black" stroke="black" points="92.77,-69.81 89.27,-59.81 85.77,-69.81 92.77,-69.81"/>
</g>
</g>
</svg>
