<?xml version="1.0" encoding="UTF-8" standalone="no"?>
<!DOCTYPE svg PUBLIC "-//W3C//DTD SVG 1.1//EN"
 "http://www.w3.org/Graphics/SVG/1.1/DTD/svg11.dtd">
<!-- Generated by graphviz version 13.0.1 (20250615.1724)
 -->
<!-- Pages: 1 -->
<svg width="646pt" height="724pt"
 viewBox="0.00 0.00 646.00 724.00" xmlns="http://www.w3.org/2000/svg" xmlns:xlink="http://www.w3.org/1999/xlink">
<g id="graph0" class="graph" transform="scale(1 1) rotate(0) translate(4 719.86)">
<polygon fill="white" stroke="none" points="-4,4 -4,-719.86 641.81,-719.86 641.81,4 -4,4"/>
<!-- ROOT_0 -->
<g id="node1" class="node">
<title>ROOT_0</title>
<ellipse fill="none" stroke="black" cx="318.91" cy="-686.87" rx="318.91" ry="28.99"/>
<text xml:space="preserve" text-anchor="middle" x="318.91" y="-690.07" font-family="Times New Roman,serif" font-size="14.00">ROOT</text>
<text xml:space="preserve" text-anchor="middle" x="318.91" y="-673.57" font-family="Times New Roman,serif" font-size="14.00">ROOT(SUB(Var(&#39;x&#39;), Value(42)), NODE(Value(1), Var(&#39;EEX&#39;), MEM(Var(&#39;x&#39;))))</text>
</g>
<!-- SUB_0 -->
<g id="node2" class="node">
<title>SUB_0</title>
<ellipse fill="none" stroke="black" cx="318.91" cy="-592.89" rx="106.24" ry="28.99"/>
<text xml:space="preserve" text-anchor="middle" x="318.91" y="-596.09" font-family="Times New Roman,serif" font-size="14.00">SUB</text>
<text xml:space="preserve" text-anchor="middle" x="318.91" y="-579.59" font-family="Times New Roman,serif" font-size="14.00">SUB(Var(&#39;x&#39;), Value(42))</text>
</g>
<!-- ROOT_0&#45;&gt;SUB_0 -->
<g id="edge1" class="edge">
<title>ROOT_0&#45;&gt;SUB_0</title>
<path fill="none" stroke="black" d="M318.91,-657.52C318.91,-650 318.91,-641.74 318.91,-633.74"/>
<polygon fill="black" stroke="black" points="322.41,-633.81 318.91,-623.81 315.41,-633.81 322.41,-633.81"/>
</g>
<!-- BIND_0 -->
<g id="node3" class="node">
<title>BIND_0</title>
<ellipse fill="none" stroke="black" cx="318.91" cy="-498.91" rx="63.82" ry="28.99"/>
<text xml:space="preserve" text-anchor="middle" x="318.91" y="-502.11" font-family="Times New Roman,serif" font-size="14.00">BIND</text>
<text xml:space="preserve" text-anchor="middle" x="318.91" y="-485.61" font-family="Times New Roman,serif" font-size="14.00">x→Value(42)</text>
</g>
<!-- SUB_0&#45;&gt;BIND_0 -->
<g id="edge2" class="edge">
<title>SUB_0&#45;&gt;BIND_0</title>
<path fill="none" stroke="black" d="M318.91,-563.54C318.91,-556.02 318.91,-547.76 318.91,-539.75"/>
<polygon fill="black" stroke="black" points="322.41,-539.83 318.91,-529.83 315.41,-539.83 322.41,-539.83"/>
</g>
<!-- NODE_0 -->
<g id="node4" class="node">
<title>NODE_0</title>
<ellipse fill="none" stroke="black" cx="318.91" cy="-404.92" rx="186.32" ry="28.99"/>
<text xml:space="preserve" text-anchor="middle" x="318.91" y="-408.12" font-family="Times New Roman,serif" font-size="14.00">NODE</text>
<text xml:space="preserve" text-anchor="middle" x="318.91" y="-391.62" font-family="Times New Roman,serif" font-size="14.00">NODE(Value(1), Var(&#39;EEX&#39;), MEM(Var(&#39;x&#39;)))</text>
</g>
<!-- BIND_0&#45;&gt;NODE_0 -->
<g id="edge3" class="edge">
<title>BIND_0&#45;&gt;NODE_0</title>
<path fill="none" stroke="black" d="M318.91,-469.56C318.91,-462.04 318.91,-453.78 318.91,-445.77"/>
<polygon fill="black" stroke="black" points="322.41,-445.85 318.91,-435.85 315.41,-445.85 322.41,-445.85"/>
</g>
<!-- VALUE_0 -->
<g id="node5" class="node">
<title>VALUE_0</title>
<ellipse fill="none" stroke="black" cx="318.91" cy="-310.94" rx="44.19" ry="28.99"/>
<text xml:space="preserve" text-anchor="middle" x="318.91" y="-314.14" font-family="Times New Roman,serif" font-size="14.00">VALUE</text>
<text xml:space="preserve" text-anchor="middle" x="318.91" y="-297.64" font-family="Times New Roman,serif" font-size="14.00">Value(1)</text>
</g>
<!-- NODE_0&#45;&gt;VALUE_0 -->
<g id="edge4" class="edge">
<title>NODE_0&#45;&gt;VALUE_0</title>
<path fill="none" stroke="black" d="M318.91,-375.57C318.91,-368.06 318.91,-359.79 318.91,-351.79"/>
<polygon fill="black" stroke="black" points="322.41,-351.87 318.91,-341.87 315.41,-351.87 322.41,-351.87"/>
</g>
<!-- VAR_0 -->
<g id="node6" class="node">
<title>VAR_0</title>
<ellipse fill="none" stroke="black" cx="318.91" cy="-216.96" rx="52.68" ry="28.99"/>
<text xml:space="preserve" text-anchor="middle" x="318.91" y="-220.16" font-family="Times New Roman,serif" font-size="14.00">VAR</text>
<text xml:space="preserve" text-anchor="middle" x="318.91" y="-203.66" font-family="Times New Roman,serif" font-size="14.00">Var(&#39;EEX&#39;)</text>
</g>
<!-- VALUE_0&#45;&gt;VAR_0 -->
<g id="edge5" class="edge">
<title>VALUE_0&#45;&gt;VAR_0</title>
<path fill="none" stroke="black" d="M318.91,-281.59C318.91,-274.07 318.91,-265.81 318.91,-257.8"/>
<polygon fill="black" stroke="black" points="322.41,-257.88 318.91,-247.88 315.41,-257.88 322.41,-257.88"/>
</g>
<!-- UNBOUND_0 -->
<g id="node7" class="node">
<title>UNBOUND_0</title>
<ellipse fill="none" stroke="black" cx="318.91" cy="-122.97" rx="59.04" ry="28.99"/>
<text xml:space="preserve" text-anchor="middle" x="318.91" y="-126.17" font-family="Times New Roman,serif" font-size="14.00">UNBOUND</text>
<text xml:space="preserve" text-anchor="middle" x="318.91" y="-109.67" font-family="Times New Roman,serif" font-size="14.00">Var(&#39;EEX&#39;)</text>
</g>
<!-- VAR_0&#45;&gt;UNBOUND_0 -->
<g id="edge6" class="edge">
<title>VAR_0&#45;&gt;UNBOUND_0</title>
<path fill="none" stroke="black" d="M318.91,-187.61C318.91,-180.09 318.91,-171.83 318.91,-163.82"/>
<polygon fill="black" stroke="black" points="322.41,-163.9 318.91,-153.9 315.41,-163.9 322.41,-163.9"/>
</g>
<!-- MEM_0 -->
<g id="node8" class="node">
<title>MEM_0</title>
<ellipse fill="none" stroke="black" cx="318.91" cy="-28.99" rx="69.12" ry="28.99"/>
<text xml:space="preserve" text-anchor="middle" x="318.91" y="-32.19" font-family="Times New Roman,serif" font-size="14.00">MEM</text>
<text xml:space="preserve" text-anchor="middle" x="318.91" y="-15.69" font-family="Times New Roman,serif" font-size="14.00">MEM(Var(&#39;x&#39;))</text>
</g>
<!-- UNBOUND_0&#45;&gt;MEM_0 -->
<g id="edge7" class="edge">
<title>UNBOUND_0&#45;&gt;MEM_0</title>
<path fill="none" stroke="black" d="M318.91,-93.63C318.91,-86.11 318.91,-77.85 318.91,-69.84"/>
<polygon fill="black" stroke="black" points="322.41,-69.92 318.91,-59.92 315.41,-69.92 322.41,-69.92"/>
</g>
</g>
</svg>
