<?xml version="1.0" encoding="UTF-8" standalone="no"?>
<!DOCTYPE svg PUBLIC "-//W3C//DTD SVG 1.1//EN"
 "http://www.w3.org/Graphics/SVG/1.1/DTD/svg11.dtd">
<!-- Generated by graphviz version 13.0.1 (20250615.1724)
 -->
<!-- Pages: 1 -->
<svg width="742pt" height="442pt"
 viewBox="0.00 0.00 742.00 442.00" xmlns="http://www.w3.org/2000/svg" xmlns:xlink="http://www.w3.org/1999/xlink">
<g id="graph0" class="graph" transform="scale(1 1) rotate(0) translate(4 437.91)">
<polygon fill="white" stroke="none" points="-4,4 -4,-437.91 738.33,-437.91 738.33,4 -4,4"/>
<!-- ROOT_0 -->
<g id="node1" class="node">
<title>ROOT_0</title>
<ellipse fill="none" stroke="black" cx="318.37" cy="-404.92" rx="318.37" ry="28.99"/>
<text xml:space="preserve" text-anchor="middle" x="318.37" y="-408.12" font-family="Times New Roman,serif" font-size="14.00">ROOT</text>
<text xml:space="preserve" text-anchor="middle" x="318.37" y="-391.62" font-family="Times New Roman,serif" font-size="14.00">ROOT(SUB(Var(&#39;x&#39;), EX(Var(&#39;y&#39;), JAM())), NODE(Value(3), MEM(), Var(&#39;x&#39;)))</text>
</g>
<!-- SUB_0 -->
<g id="node2" class="node">
<title>SUB_0</title>
<ellipse fill="none" stroke="black" cx="318.37" cy="-310.94" rx="147.08" ry="28.99"/>
<text xml:space="preserve" text-anchor="middle" x="318.37" y="-314.14" font-family="Times New Roman,serif" font-size="14.00">SUB</text>
<text xml:space="preserve" text-anchor="middle" x="318.37" y="-297.64" font-family="Times New Roman,serif" font-size="14.00">SUB(Var(&#39;x&#39;), EX(Var(&#39;y&#39;), JAM()))</text>
</g>
<!-- ROOT_0&#45;&gt;SUB_0 -->
<g id="edge1" class="edge">
<title>ROOT_0&#45;&gt;SUB_0</title>
<path fill="none" stroke="black" d="M318.37,-375.57C318.37,-368.06 318.37,-359.79 318.37,-351.79"/>
<polygon fill="black" stroke="black" points="321.87,-351.87 318.37,-341.87 314.87,-351.87 321.87,-351.87"/>
</g>
<!-- NODE_0 -->
<g id="node3" class="node">
<title>NODE_0</title>
<ellipse fill="none" stroke="black" cx="318.37" cy="-216.96" rx="144.96" ry="28.99"/>
<text xml:space="preserve" text-anchor="middle" x="318.37" y="-220.16" font-family="Times New Roman,serif" font-size="14.00">NODE</text>
<text xml:space="preserve" text-anchor="middle" x="318.37" y="-203.66" font-family="Times New Roman,serif" font-size="14.00">NODE(Value(3), MEM(), Var(&#39;x&#39;))</text>
</g>
<!-- SUB_0&#45;&gt;NODE_0 -->
<g id="edge2" class="edge">
<title>SUB_0&#45;&gt;NODE_0</title>
<path fill="none" stroke="black" d="M318.37,-281.59C318.37,-274.07 318.37,-265.81 318.37,-257.8"/>
<polygon fill="black" stroke="black" points="321.87,-257.88 318.37,-247.88 314.87,-257.88 321.87,-257.88"/>
</g>
<!-- ALIVE_0 -->
<g id="node4" class="node">
<title>ALIVE_0</title>
<ellipse fill="none" stroke="black" cx="318.37" cy="-122.97" rx="44.19" ry="28.99"/>
<text xml:space="preserve" text-anchor="middle" x="318.37" y="-126.17" font-family="Times New Roman,serif" font-size="14.00">ALIVE</text>
<text xml:space="preserve" text-anchor="middle" x="318.37" y="-109.67" font-family="Times New Roman,serif" font-size="14.00">Value(3)</text>
</g>
<!-- NODE_0&#45;&gt;ALIVE_0 -->
<g id="edge3" class="edge">
<title>NODE_0&#45;&gt;ALIVE_0</title>
<path fill="none" stroke="black" d="M318.37,-187.61C318.37,-180.09 318.37,-171.83 318.37,-163.82"/>
<polygon fill="black" stroke="black" points="321.87,-163.9 318.37,-153.9 314.87,-163.9 321.87,-163.9"/>
</g>
<!-- MEM_0 -->
<g id="node6" class="node">
<title>MEM_0</title>
<ellipse fill="none" stroke="black" cx="318.37" cy="-28.99" rx="41.54" ry="28.99"/>
<text xml:space="preserve" text-anchor="middle" x="318.37" y="-32.19" font-family="Times New Roman,serif" font-size="14.00">MEM</text>
<text xml:space="preserve" text-anchor="middle" x="318.37" y="-15.69" font-family="Times New Roman,serif" font-size="14.00">MEM()</text>
</g>
<!-- ALIVE_0&#45;&gt;MEM_0 -->
<g id="edge4" class="edge">
<title>ALIVE_0&#45;&gt;MEM_0</title>
<path fill="none" stroke="black" d="M318.37,-93.63C318.37,-86.11 318.37,-77.85 318.37,-69.84"/>
<polygon fill="black" stroke="black" points="321.87,-69.92 318.37,-59.92 314.87,-69.92 321.87,-69.92"/>
</g>
<!-- ALIVE_1 -->
<g id="node5" class="node">
<title>ALIVE_1</title>
<ellipse fill="none" stroke="black" cx="694.37" cy="-404.92" rx="39.95" ry="28.99"/>
<text xml:space="preserve" text-anchor="middle" x="694.37" y="-408.12" font-family="Times New Roman,serif" font-size="14.00">ALIVE</text>
<text xml:space="preserve" text-anchor="middle" x="694.37" y="-391.62" font-family="Times New Roman,serif" font-size="14.00">Var(&#39;x&#39;)</text>
</g>
</g>
</svg>
