<?xml version="1.0" encoding="UTF-8" standalone="no"?>
<!DOCTYPE svg PUBLIC "-//W3C//DTD SVG 1.1//EN"
 "http://www.w3.org/Graphics/SVG/1.1/DTD/svg11.dtd">
<!-- Generated by graphviz version 13.0.1 (20250615.1724)
 -->
<!-- Pages: 1 -->
<svg width="1225pt" height="254pt"
 viewBox="0.00 0.00 1225.00 254.00" xmlns="http://www.w3.org/2000/svg" xmlns:xlink="http://www.w3.org/1999/xlink">
<g id="graph0" class="graph" transform="scale(1 1) rotate(0) translate(4 249.95)">
<polygon fill="white" stroke="none" points="-4,4 -4,-249.95 1221.28,-249.95 1221.28,4 -4,4"/>
<!-- APP_0 -->
<g id="node1" class="node">
<title>APP_0</title>
<ellipse fill="none" stroke="black" cx="338" cy="-216.96" rx="338" ry="28.99"/>
<text xml:space="preserve" text-anchor="middle" x="338" y="-220.16" font-family="Times New Roman,serif" font-size="14.00">APP</text>
<text xml:space="preserve" text-anchor="middle" x="338" y="-203.66" font-family="Times New Roman,serif" font-size="14.00">APP(LAM(Var(&#39;x&#39;), EX(Var(&#39;x&#39;), Var(&#39;JAM&#39;))), APP(LAM(Var(&#39;z&#39;), Var(&#39;z&#39;)), Var(&#39;y&#39;)))</text>
</g>
<!-- LAM_0 -->
<g id="node3" class="node">
<title>LAM_0</title>
<ellipse fill="none" stroke="black" cx="338" cy="-122.97" rx="166.17" ry="28.99"/>
<text xml:space="preserve" text-anchor="middle" x="338" y="-126.17" font-family="Times New Roman,serif" font-size="14.00">LAM</text>
<text xml:space="preserve" text-anchor="middle" x="338" y="-109.67" font-family="Times New Roman,serif" font-size="14.00">LAM(Var(&#39;x&#39;), EX(Var(&#39;x&#39;), Var(&#39;JAM&#39;)))</text>
</g>
<!-- APP_0&#45;&gt;LAM_0 -->
<g id="edge1" class="edge">
<title>APP_0&#45;&gt;LAM_0</title>
<path fill="none" stroke="black" d="M338,-187.61C338,-180.09 338,-171.83 338,-163.82"/>
<polygon fill="black" stroke="black" points="341.5,-163.9 338,-153.9 334.5,-163.9 341.5,-163.9"/>
</g>
<!-- APP_1 -->
<g id="node2" class="node">
<title>APP_1</title>
<ellipse fill="none" stroke="black" cx="848" cy="-216.96" rx="154.5" ry="28.99"/>
<text xml:space="preserve" text-anchor="middle" x="848" y="-220.16" font-family="Times New Roman,serif" font-size="14.00">APP</text>
<text xml:space="preserve" text-anchor="middle" x="848" y="-203.66" font-family="Times New Roman,serif" font-size="14.00">APP(LAM(Var(&#39;z&#39;), Var(&#39;z&#39;)), Var(&#39;y&#39;))</text>
</g>
<!-- EX_0 -->
<g id="node5" class="node">
<title>EX_0</title>
<ellipse fill="none" stroke="black" cx="338" cy="-28.99" rx="152.91" ry="28.99"/>
<text xml:space="preserve" text-anchor="middle" x="338" y="-32.19" font-family="Times New Roman,serif" font-size="14.00">EX</text>
<text xml:space="preserve" text-anchor="middle" x="338" y="-15.69" font-family="Times New Roman,serif" font-size="14.00">EX(&lt;State.VAC: &#39;Vac&#39;&gt;, Var(&#39;JAM&#39;))</text>
</g>
<!-- LAM_0&#45;&gt;EX_0 -->
<g id="edge2" class="edge">
<title>LAM_0&#45;&gt;EX_0</title>
<path fill="none" stroke="black" d="M338,-93.63C338,-86.11 338,-77.85 338,-69.84"/>
<polygon fill="black" stroke="black" points="341.5,-69.92 338,-59.92 334.5,-69.92 341.5,-69.92"/>
</g>
<!-- LAM_1 -->
<g id="node4" class="node">
<title>LAM_1</title>
<ellipse fill="none" stroke="black" cx="1119" cy="-216.96" rx="98.29" ry="28.99"/>
<text xml:space="preserve" text-anchor="middle" x="1119" y="-220.16" font-family="Times New Roman,serif" font-size="14.00">LAM</text>
<text xml:space="preserve" text-anchor="middle" x="1119" y="-203.66" font-family="Times New Roman,serif" font-size="14.00">LAM(Var(&#39;z&#39;), Var(&#39;z&#39;))</text>
</g>
</g>
</svg>
