<?xml version="1.0" encoding="UTF-8" standalone="no"?>
<!DOCTYPE svg PUBLIC "-//W3C//DTD SVG 1.1//EN"
 "http://www.w3.org/Graphics/SVG/1.1/DTD/svg11.dtd">
<!-- Generated by graphviz version 13.0.1 (20250615.1724)
 -->
<!-- Pages: 1 -->
<svg width="269pt" height="398pt"
 viewBox="0.00 0.00 269.00 398.00" xmlns="http://www.w3.org/2000/svg" xmlns:xlink="http://www.w3.org/1999/xlink">
<g id="graph0" class="graph" transform="scale(1 1) rotate(0) translate(4 393.95)">
<polygon fill="white" stroke="none" points="-4,4 -4,-393.95 265.21,-393.95 265.21,4 -4,4"/>
<!-- ALIVE_0 -->
<g id="node1" class="node">
<title>ALIVE_0</title>
<ellipse fill="none" stroke="black" cx="106.24" cy="-194.97" rx="39.95" ry="28.99"/>
<text xml:space="preserve" text-anchor="middle" x="106.24" y="-198.17" font-family="Times New Roman,serif" font-size="14.00">ALIVE</text>
<text xml:space="preserve" text-anchor="middle" x="106.24" y="-181.67" font-family="Times New Roman,serif" font-size="14.00">Var(&#39;x&#39;)</text>
</g>
<!-- VAC_0 -->
<g id="node6" class="node">
<title>VAC_0</title>
<ellipse fill="none" stroke="black" cx="106.24" cy="-111.98" rx="38.56" ry="18"/>
<text xml:space="preserve" text-anchor="middle" x="106.24" y="-106.93" font-family="Times New Roman,serif" font-size="14.00">VAC_0</text>
</g>
<!-- ALIVE_0&#45;&gt;VAC_0 -->
<g id="edge3" class="edge">
<title>ALIVE_0&#45;&gt;VAC_0</title>
<path fill="none" stroke="black" d="M106.24,-165.65C106.24,-157.77 106.24,-149.22 106.24,-141.34"/>
<polygon fill="black" stroke="black" points="109.74,-141.59 106.24,-131.59 102.74,-141.59 109.74,-141.59"/>
</g>
<!-- ALIVE_1 -->
<g id="node2" class="node">
<title>ALIVE_1</title>
<ellipse fill="none" stroke="black" cx="212.24" cy="-360.96" rx="48.97" ry="28.99"/>
<text xml:space="preserve" text-anchor="middle" x="212.24" y="-364.16" font-family="Times New Roman,serif" font-size="14.00">ALIVE</text>
<text xml:space="preserve" text-anchor="middle" x="212.24" y="-347.66" font-family="Times New Roman,serif" font-size="14.00">Value(42)</text>
</g>
<!-- SUB_0 -->
<g id="node3" class="node">
<title>SUB_0</title>
<ellipse fill="none" stroke="black" cx="106.24" cy="-28.99" rx="106.24" ry="28.99"/>
<text xml:space="preserve" text-anchor="middle" x="106.24" y="-32.19" font-family="Times New Roman,serif" font-size="14.00">SUB</text>
<text xml:space="preserve" text-anchor="middle" x="106.24" y="-15.69" font-family="Times New Roman,serif" font-size="14.00">SUB(Var(&#39;x&#39;), Value(42))</text>
</g>
<!-- JAM_0 -->
<g id="node4" class="node">
<title>JAM_0</title>
<ellipse fill="none" stroke="black" cx="106.24" cy="-360.96" rx="39.07" ry="18"/>
<text xml:space="preserve" text-anchor="middle" x="106.24" y="-355.91" font-family="Times New Roman,serif" font-size="14.00">JAM_0</text>
</g>
<!-- MEM_0 -->
<g id="node5" class="node">
<title>MEM_0</title>
<ellipse fill="none" stroke="black" cx="106.24" cy="-277.97" rx="43.16" ry="18"/>
<text xml:space="preserve" text-anchor="middle" x="106.24" y="-272.92" font-family="Times New Roman,serif" font-size="14.00">MEM_0</text>
</g>
<!-- JAM_0&#45;&gt;MEM_0 -->
<g id="edge1" class="edge">
<title>JAM_0&#45;&gt;MEM_0</title>
<path fill="none" stroke="black" d="M106.24,-342.78C106.24,-332.65 106.24,-319.56 106.24,-307.88"/>
<polygon fill="black" stroke="black" points="109.74,-307.91 106.24,-297.91 102.74,-307.91 109.74,-307.91"/>
</g>
<!-- MEM_0&#45;&gt;ALIVE_0 -->
<g id="edge2" class="edge">
<title>MEM_0&#45;&gt;ALIVE_0</title>
<path fill="none" stroke="black" d="M106.24,-259.79C106.24,-252.7 106.24,-244.17 106.24,-235.68"/>
<polygon fill="black" stroke="black" points="109.74,-235.79 106.24,-225.79 102.74,-235.79 109.74,-235.79"/>
</g>
<!-- VAC_0&#45;&gt;SUB_0 -->
<g id="edge4" class="edge">
<title>VAC_0&#45;&gt;SUB_0</title>
<path fill="none" stroke="black" d="M106.24,-93.81C106.24,-86.72 106.24,-78.19 106.24,-69.7"/>
<polygon fill="black" stroke="black" points="109.74,-69.81 106.24,-59.81 102.74,-69.81 109.74,-69.81"/>
</g>
</g>
</svg>
