<?xml version="1.0" encoding="UTF-8" standalone="no"?>
<!DOCTYPE svg PUBLIC "-//W3C//DTD SVG 1.1//EN"
 "http://www.w3.org/Graphics/SVG/1.1/DTD/svg11.dtd">
<!-- Generated by graphviz version 13.0.1 (20250615.1724)
 -->
<!-- Pages: 1 -->
<svg width="1262pt" height="1006pt"
 viewBox="0.00 0.00 1262.00 1006.00" xmlns="http://www.w3.org/2000/svg" xmlns:xlink="http://www.w3.org/1999/xlink">
<g id="graph0" class="graph" transform="scale(1 1) rotate(0) translate(4 1001.81)">
<polygon fill="white" stroke="none" points="-4,4 -4,-1001.81 1257.67,-1001.81 1257.67,4 -4,4"/>
<!-- ROOT_0 -->
<g id="node1" class="node">
<title>ROOT_0</title>
<ellipse fill="none" stroke="black" cx="318.37" cy="-968.82" rx="318.37" ry="28.99"/>
<text xml:space="preserve" text-anchor="middle" x="318.37" y="-972.02" font-family="Times New Roman,serif" font-size="14.00">ROOT</text>
<text xml:space="preserve" text-anchor="middle" x="318.37" y="-955.52" font-family="Times New Roman,serif" font-size="14.00">ROOT(SUB(Var(&#39;x&#39;), EX(Var(&#39;y&#39;), JAM())), NODE(Value(3), MEM(), Var(&#39;x&#39;)))</text>
</g>
<!-- SUB_0 -->
<g id="node2" class="node">
<title>SUB_0</title>
<ellipse fill="none" stroke="black" cx="318.37" cy="-874.84" rx="147.08" ry="28.99"/>
<text xml:space="preserve" text-anchor="middle" x="318.37" y="-878.04" font-family="Times New Roman,serif" font-size="14.00">SUB</text>
<text xml:space="preserve" text-anchor="middle" x="318.37" y="-861.54" font-family="Times New Roman,serif" font-size="14.00">SUB(Var(&#39;x&#39;), EX(Var(&#39;y&#39;), JAM()))</text>
</g>
<!-- ROOT_0&#45;&gt;SUB_0 -->
<g id="edge1" class="edge">
<title>ROOT_0&#45;&gt;SUB_0</title>
<path fill="none" stroke="black" d="M318.37,-939.47C318.37,-931.95 318.37,-923.69 318.37,-915.68"/>
<polygon fill="black" stroke="black" points="321.87,-915.76 318.37,-905.76 314.87,-915.76 321.87,-915.76"/>
</g>
<!-- EX_0 -->
<g id="node3" class="node">
<title>EX_0</title>
<ellipse fill="none" stroke="black" cx="318.37" cy="-780.85" rx="89.27" ry="28.99"/>
<text xml:space="preserve" text-anchor="middle" x="318.37" y="-784.05" font-family="Times New Roman,serif" font-size="14.00">EX</text>
<text xml:space="preserve" text-anchor="middle" x="318.37" y="-767.55" font-family="Times New Roman,serif" font-size="14.00">EX(Var(&#39;y&#39;), JAM())</text>
</g>
<!-- SUB_0&#45;&gt;EX_0 -->
<g id="edge2" class="edge">
<title>SUB_0&#45;&gt;EX_0</title>
<path fill="none" stroke="black" d="M318.37,-845.49C318.37,-837.97 318.37,-829.71 318.37,-821.7"/>
<polygon fill="black" stroke="black" points="321.87,-821.78 318.37,-811.78 314.87,-821.78 321.87,-821.78"/>
</g>
<!-- VAR_0 -->
<g id="node5" class="node">
<title>VAR_0</title>
<ellipse fill="none" stroke="black" cx="318.37" cy="-686.87" rx="38.89" ry="28.99"/>
<text xml:space="preserve" text-anchor="middle" x="318.37" y="-690.07" font-family="Times New Roman,serif" font-size="14.00">VAR</text>
<text xml:space="preserve" text-anchor="middle" x="318.37" y="-673.57" font-family="Times New Roman,serif" font-size="14.00">Var(&#39;y&#39;)</text>
</g>
<!-- EX_0&#45;&gt;VAR_0 -->
<g id="edge3" class="edge">
<title>EX_0&#45;&gt;VAR_0</title>
<path fill="none" stroke="black" d="M318.37,-751.51C318.37,-743.99 318.37,-735.73 318.37,-727.72"/>
<polygon fill="black" stroke="black" points="321.87,-727.8 318.37,-717.8 314.87,-727.8 321.87,-727.8"/>
</g>
<!-- EX_1 -->
<g id="node4" class="node">
<title>EX_1</title>
<ellipse fill="none" stroke="black" cx="744.37" cy="-968.82" rx="89.27" ry="28.99"/>
<text xml:space="preserve" text-anchor="middle" x="744.37" y="-972.02" font-family="Times New Roman,serif" font-size="14.00">EX</text>
<text xml:space="preserve" text-anchor="middle" x="744.37" y="-955.52" font-family="Times New Roman,serif" font-size="14.00">EX(Var(&#39;y&#39;), JAM())</text>
</g>
<!-- UNBOUND_0 -->
<g id="node8" class="node">
<title>UNBOUND_0</title>
<ellipse fill="none" stroke="black" cx="318.37" cy="-592.89" rx="59.04" ry="28.99"/>
<text xml:space="preserve" text-anchor="middle" x="318.37" y="-596.09" font-family="Times New Roman,serif" font-size="14.00">UNBOUND</text>
<text xml:space="preserve" text-anchor="middle" x="318.37" y="-579.59" font-family="Times New Roman,serif" font-size="14.00">Var(&#39;y&#39;)</text>
</g>
<!-- VAR_0&#45;&gt;UNBOUND_0 -->
<g id="edge4" class="edge">
<title>VAR_0&#45;&gt;UNBOUND_0</title>
<path fill="none" stroke="black" d="M318.37,-657.52C318.37,-650 318.37,-641.74 318.37,-633.74"/>
<polygon fill="black" stroke="black" points="321.87,-633.81 318.37,-623.81 314.87,-633.81 321.87,-633.81"/>
</g>
<!-- VAR_1 -->
<g id="node6" class="node">
<title>VAR_1</title>
<ellipse fill="none" stroke="black" cx="890.37" cy="-968.82" rx="38.89" ry="28.99"/>
<text xml:space="preserve" text-anchor="middle" x="890.37" y="-972.02" font-family="Times New Roman,serif" font-size="14.00">VAR</text>
<text xml:space="preserve" text-anchor="middle" x="890.37" y="-955.52" font-family="Times New Roman,serif" font-size="14.00">Var(&#39;x&#39;)</text>
</g>
<!-- VAR_2 -->
<g id="node7" class="node">
<title>VAR_2</title>
<ellipse fill="none" stroke="black" cx="986.37" cy="-968.82" rx="38.89" ry="28.99"/>
<text xml:space="preserve" text-anchor="middle" x="986.37" y="-972.02" font-family="Times New Roman,serif" font-size="14.00">VAR</text>
<text xml:space="preserve" text-anchor="middle" x="986.37" y="-955.52" font-family="Times New Roman,serif" font-size="14.00">Var(&#39;y&#39;)</text>
</g>
<!-- JAM_0 -->
<g id="node10" class="node">
<title>JAM_0</title>
<ellipse fill="none" stroke="black" cx="318.37" cy="-498.91" rx="37.3" ry="28.99"/>
<text xml:space="preserve" text-anchor="middle" x="318.37" y="-502.11" font-family="Times New Roman,serif" font-size="14.00">JAM</text>
<text xml:space="preserve" text-anchor="middle" x="318.37" y="-485.61" font-family="Times New Roman,serif" font-size="14.00">JAM()</text>
</g>
<!-- UNBOUND_0&#45;&gt;JAM_0 -->
<g id="edge5" class="edge">
<title>UNBOUND_0&#45;&gt;JAM_0</title>
<path fill="none" stroke="black" d="M318.37,-563.54C318.37,-556.02 318.37,-547.76 318.37,-539.75"/>
<polygon fill="black" stroke="black" points="321.87,-539.83 318.37,-529.83 314.87,-539.83 321.87,-539.83"/>
</g>
<!-- UNBOUND_1 -->
<g id="node9" class="node">
<title>UNBOUND_1</title>
<ellipse fill="none" stroke="black" cx="1102.37" cy="-968.82" rx="59.04" ry="28.99"/>
<text xml:space="preserve" text-anchor="middle" x="1102.37" y="-972.02" font-family="Times New Roman,serif" font-size="14.00">UNBOUND</text>
<text xml:space="preserve" text-anchor="middle" x="1102.37" y="-955.52" font-family="Times New Roman,serif" font-size="14.00">Var(&#39;y&#39;)</text>
</g>
<!-- BIND_0 -->
<g id="node12" class="node">
<title>BIND_0</title>
<ellipse fill="none" stroke="black" cx="318.37" cy="-404.92" rx="104.12" ry="28.99"/>
<text xml:space="preserve" text-anchor="middle" x="318.37" y="-408.12" font-family="Times New Roman,serif" font-size="14.00">BIND</text>
<text xml:space="preserve" text-anchor="middle" x="318.37" y="-391.62" font-family="Times New Roman,serif" font-size="14.00">x→EX(Var(&#39;y&#39;), JAM())</text>
</g>
<!-- JAM_0&#45;&gt;BIND_0 -->
<g id="edge6" class="edge">
<title>JAM_0&#45;&gt;BIND_0</title>
<path fill="none" stroke="black" d="M318.37,-469.56C318.37,-462.04 318.37,-453.78 318.37,-445.77"/>
<polygon fill="black" stroke="black" points="321.87,-445.85 318.37,-435.85 314.87,-445.85 321.87,-445.85"/>
</g>
<!-- JAM_1 -->
<g id="node11" class="node">
<title>JAM_1</title>
<ellipse fill="none" stroke="black" cx="1216.37" cy="-968.82" rx="37.3" ry="28.99"/>
<text xml:space="preserve" text-anchor="middle" x="1216.37" y="-972.02" font-family="Times New Roman,serif" font-size="14.00">JAM</text>
<text xml:space="preserve" text-anchor="middle" x="1216.37" y="-955.52" font-family="Times New Roman,serif" font-size="14.00">JAM()</text>
</g>
<!-- NODE_0 -->
<g id="node13" class="node">
<title>NODE_0</title>
<ellipse fill="none" stroke="black" cx="318.37" cy="-310.94" rx="144.96" ry="28.99"/>
<text xml:space="preserve" text-anchor="middle" x="318.37" y="-314.14" font-family="Times New Roman,serif" font-size="14.00">NODE</text>
<text xml:space="preserve" text-anchor="middle" x="318.37" y="-297.64" font-family="Times New Roman,serif" font-size="14.00">NODE(Value(3), MEM(), Var(&#39;x&#39;))</text>
</g>
<!-- BIND_0&#45;&gt;NODE_0 -->
<g id="edge7" class="edge">
<title>BIND_0&#45;&gt;NODE_0</title>
<path fill="none" stroke="black" d="M318.37,-375.57C318.37,-368.06 318.37,-359.79 318.37,-351.79"/>
<polygon fill="black" stroke="black" points="321.87,-351.87 318.37,-341.87 314.87,-351.87 321.87,-351.87"/>
</g>
<!-- VAL_0 -->
<g id="node14" class="node">
<title>VAL_0</title>
<ellipse fill="none" stroke="black" cx="318.37" cy="-216.96" rx="44.19" ry="28.99"/>
<text xml:space="preserve" text-anchor="middle" x="318.37" y="-220.16" font-family="Times New Roman,serif" font-size="14.00">VAL</text>
<text xml:space="preserve" text-anchor="middle" x="318.37" y="-203.66" font-family="Times New Roman,serif" font-size="14.00">Value(3)</text>
</g>
<!-- NODE_0&#45;&gt;VAL_0 -->
<g id="edge8" class="edge">
<title>NODE_0&#45;&gt;VAL_0</title>
<path fill="none" stroke="black" d="M318.37,-281.59C318.37,-274.07 318.37,-265.81 318.37,-257.8"/>
<polygon fill="black" stroke="black" points="321.87,-257.88 318.37,-247.88 314.87,-257.88 321.87,-257.88"/>
</g>
<!-- MEM_0 -->
<g id="node15" class="node">
<title>MEM_0</title>
<ellipse fill="none" stroke="black" cx="318.37" cy="-122.97" rx="41.54" ry="28.99"/>
<text xml:space="preserve" text-anchor="middle" x="318.37" y="-126.17" font-family="Times New Roman,serif" font-size="14.00">MEM</text>
<text xml:space="preserve" text-anchor="middle" x="318.37" y="-109.67" font-family="Times New Roman,serif" font-size="14.00">MEM()</text>
</g>
<!-- VAL_0&#45;&gt;MEM_0 -->
<g id="edge9" class="edge">
<title>VAL_0&#45;&gt;MEM_0</title>
<path fill="none" stroke="black" d="M318.37,-187.61C318.37,-180.09 318.37,-171.83 318.37,-163.82"/>
<polygon fill="black" stroke="black" points="321.87,-163.9 318.37,-153.9 314.87,-163.9 321.87,-163.9"/>
</g>
<!-- RESOLVE_0 -->
<g id="node16" class="node">
<title>RESOLVE_0</title>
<ellipse fill="none" stroke="black" cx="318.37" cy="-28.99" rx="104.12" ry="28.99"/>
<text xml:space="preserve" text-anchor="middle" x="318.37" y="-32.19" font-family="Times New Roman,serif" font-size="14.00">RESOLVE</text>
<text xml:space="preserve" text-anchor="middle" x="318.37" y="-15.69" font-family="Times New Roman,serif" font-size="14.00">x→EX(Var(&#39;y&#39;), JAM())</text>
</g>
<!-- MEM_0&#45;&gt;RESOLVE_0 -->
<g id="edge10" class="edge">
<title>MEM_0&#45;&gt;RESOLVE_0</title>
<path fill="none" stroke="black" d="M318.37,-93.63C318.37,-86.11 318.37,-77.85 318.37,-69.84"/>
<polygon fill="black" stroke="black" points="321.87,-69.92 318.37,-59.92 314.87,-69.92 321.87,-69.92"/>
</g>
</g>
</svg>
