<?xml version="1.0" encoding="UTF-8" standalone="no"?>
<!DOCTYPE svg PUBLIC "-//W3C//DTD SVG 1.1//EN"
 "http://www.w3.org/Graphics/SVG/1.1/DTD/svg11.dtd">
<!-- Generated by graphviz version 13.0.1 (20250615.1724)
 -->
<!-- Pages: 1 -->
<svg width="714pt" height="442pt"
 viewBox="0.00 0.00 714.00 442.00" xmlns="http://www.w3.org/2000/svg" xmlns:xlink="http://www.w3.org/1999/xlink">
<g id="graph0" class="graph" transform="scale(1 1) rotate(0) translate(4 437.91)">
<polygon fill="white" stroke="none" points="-4,4 -4,-437.91 709.9,-437.91 709.9,4 -4,4"/>
<!-- APP_0 -->
<g id="node1" class="node">
<title>APP_0</title>
<ellipse fill="none" stroke="black" cx="221.85" cy="-404.92" rx="221.85" ry="28.99"/>
<text xml:space="preserve" text-anchor="middle" x="221.85" y="-408.12" font-family="Times New Roman,serif" font-size="14.00">APP</text>
<text xml:space="preserve" text-anchor="middle" x="221.85" y="-391.62" font-family="Times New Roman,serif" font-size="14.00">APP(LAM(Var(&#39;x&#39;), EX(Var(&#39;x&#39;), Var(&#39;JAM&#39;))), Var(&#39;z&#39;))</text>
</g>
<!-- LAM_0 -->
<g id="node2" class="node">
<title>LAM_0</title>
<ellipse fill="none" stroke="black" cx="221.85" cy="-310.94" rx="166.17" ry="28.99"/>
<text xml:space="preserve" text-anchor="middle" x="221.85" y="-314.14" font-family="Times New Roman,serif" font-size="14.00">LAM</text>
<text xml:space="preserve" text-anchor="middle" x="221.85" y="-297.64" font-family="Times New Roman,serif" font-size="14.00">LAM(Var(&#39;x&#39;), EX(Var(&#39;x&#39;), Var(&#39;JAM&#39;)))</text>
</g>
<!-- APP_0&#45;&gt;LAM_0 -->
<g id="edge1" class="edge">
<title>APP_0&#45;&gt;LAM_0</title>
<path fill="none" stroke="black" d="M221.85,-375.57C221.85,-368.06 221.85,-359.79 221.85,-351.79"/>
<polygon fill="black" stroke="black" points="225.35,-351.87 221.85,-341.87 218.35,-351.87 225.35,-351.87"/>
</g>
<!-- EX_0 -->
<g id="node3" class="node">
<title>EX_0</title>
<ellipse fill="none" stroke="black" cx="221.85" cy="-216.96" rx="104.65" ry="28.99"/>
<text xml:space="preserve" text-anchor="middle" x="221.85" y="-220.16" font-family="Times New Roman,serif" font-size="14.00">EX</text>
<text xml:space="preserve" text-anchor="middle" x="221.85" y="-203.66" font-family="Times New Roman,serif" font-size="14.00">EX(Var(&#39;z&#39;), Var(&#39;JAM&#39;))</text>
</g>
<!-- LAM_0&#45;&gt;EX_0 -->
<g id="edge2" class="edge">
<title>LAM_0&#45;&gt;EX_0</title>
<path fill="none" stroke="black" d="M221.85,-281.59C221.85,-274.07 221.85,-265.81 221.85,-257.8"/>
<polygon fill="black" stroke="black" points="225.35,-257.88 221.85,-247.88 218.35,-257.88 225.35,-257.88"/>
</g>
<!-- VAR_0 -->
<g id="node4" class="node">
<title>VAR_0</title>
<ellipse fill="none" stroke="black" cx="221.85" cy="-122.97" rx="38.36" ry="28.99"/>
<text xml:space="preserve" text-anchor="middle" x="221.85" y="-126.17" font-family="Times New Roman,serif" font-size="14.00">VAR</text>
<text xml:space="preserve" text-anchor="middle" x="221.85" y="-109.67" font-family="Times New Roman,serif" font-size="14.00">Var(&#39;z&#39;)</text>
</g>
<!-- EX_0&#45;&gt;VAR_0 -->
<g id="edge3" class="edge">
<title>EX_0&#45;&gt;VAR_0</title>
<path fill="none" stroke="black" d="M221.85,-187.61C221.85,-180.09 221.85,-171.83 221.85,-163.82"/>
<polygon fill="black" stroke="black" points="225.35,-163.9 221.85,-153.9 218.35,-163.9 225.35,-163.9"/>
</g>
<!-- UNBOUND_0 -->
<g id="node6" class="node">
<title>UNBOUND_0</title>
<ellipse fill="none" stroke="black" cx="221.85" cy="-28.99" rx="59.04" ry="28.99"/>
<text xml:space="preserve" text-anchor="middle" x="221.85" y="-32.19" font-family="Times New Roman,serif" font-size="14.00">UNBOUND</text>
<text xml:space="preserve" text-anchor="middle" x="221.85" y="-15.69" font-family="Times New Roman,serif" font-size="14.00">Var(&#39;z&#39;)</text>
</g>
<!-- VAR_0&#45;&gt;UNBOUND_0 -->
<g id="edge4" class="edge">
<title>VAR_0&#45;&gt;UNBOUND_0</title>
<path fill="none" stroke="black" d="M221.85,-93.63C221.85,-86.11 221.85,-77.85 221.85,-69.84"/>
<polygon fill="black" stroke="black" points="225.35,-69.92 221.85,-59.92 218.35,-69.92 225.35,-69.92"/>
</g>
<!-- VAR_1 -->
<g id="node5" class="node">
<title>VAR_1</title>
<ellipse fill="none" stroke="black" cx="515.85" cy="-404.92" rx="53.74" ry="28.99"/>
<text xml:space="preserve" text-anchor="middle" x="515.85" y="-408.12" font-family="Times New Roman,serif" font-size="14.00">VAR</text>
<text xml:space="preserve" text-anchor="middle" x="515.85" y="-391.62" font-family="Times New Roman,serif" font-size="14.00">Var(&#39;JAM&#39;)</text>
</g>
<!-- UNBOUND_1 -->
<g id="node7" class="node">
<title>UNBOUND_1</title>
<ellipse fill="none" stroke="black" cx="646.85" cy="-404.92" rx="59.04" ry="28.99"/>
<text xml:space="preserve" text-anchor="middle" x="646.85" y="-408.12" font-family="Times New Roman,serif" font-size="14.00">UNBOUND</text>
<text xml:space="preserve" text-anchor="middle" x="646.85" y="-391.62" font-family="Times New Roman,serif" font-size="14.00">Var(&#39;JAM&#39;)</text>
</g>
</g>
</svg>
