<?xml version="1.0" encoding="UTF-8" standalone="no"?>
<!DOCTYPE svg PUBLIC "-//W3C//DTD SVG 1.1//EN"
 "http://www.w3.org/Graphics/SVG/1.1/DTD/svg11.dtd">
<!-- Generated by graphviz version 13.0.1 (20250615.1724)
 -->
<!-- Pages: 1 -->
<svg width="1842pt" height="348pt"
 viewBox="0.00 0.00 1842.00 348.00" xmlns="http://www.w3.org/2000/svg" xmlns:xlink="http://www.w3.org/1999/xlink">
<g id="graph0" class="graph" transform="scale(1 1) rotate(0) translate(4 343.93)">
<polygon fill="white" stroke="none" points="-4,4 -4,-343.93 1838.28,-343.93 1838.28,4 -4,4"/>
<!-- ROOT_0 -->
<g id="node1" class="node">
<title>ROOT_0</title>
<ellipse fill="none" stroke="black" cx="656.2" cy="-310.94" rx="656.2" ry="28.99"/>
<text xml:space="preserve" text-anchor="middle" x="656.2" y="-314.14" font-family="Times New Roman,serif" font-size="14.00">ROOT</text>
<text xml:space="preserve" text-anchor="middle" x="656.2" y="-297.64" font-family="Times New Roman,serif" font-size="14.00">ROOT(SUB(Var(&#39;x&#39;), LAM(Var(&#39;z&#39;), EX(Var(&#39;z&#39;), Var(&#39;JAM&#39;)))), NODE(Value(1), Var(&#39;MEM&#39;), Var(&#39;x&#39;)), NODE(Value(2), Var(&#39;EEX&#39;), APP(MEM(Var(&#39;x&#39;)), Value(42))))</text>
</g>
<!-- SUB_0 -->
<g id="node2" class="node">
<title>SUB_0</title>
<ellipse fill="none" stroke="black" cx="656.2" cy="-216.96" rx="222.92" ry="28.99"/>
<text xml:space="preserve" text-anchor="middle" x="656.2" y="-220.16" font-family="Times New Roman,serif" font-size="14.00">SUB</text>
<text xml:space="preserve" text-anchor="middle" x="656.2" y="-203.66" font-family="Times New Roman,serif" font-size="14.00">SUB(Var(&#39;x&#39;), LAM(Var(&#39;z&#39;), EX(Var(&#39;z&#39;), Var(&#39;JAM&#39;))))</text>
</g>
<!-- ROOT_0&#45;&gt;SUB_0 -->
<g id="edge1" class="edge">
<title>ROOT_0&#45;&gt;SUB_0</title>
<path fill="none" stroke="black" d="M656.2,-281.59C656.2,-274.07 656.2,-265.81 656.2,-257.8"/>
<polygon fill="black" stroke="black" points="659.7,-257.88 656.2,-247.88 652.7,-257.88 659.7,-257.88"/>
</g>
<!-- BIND_0 -->
<g id="node3" class="node">
<title>BIND_0</title>
<ellipse fill="none" stroke="black" cx="656.2" cy="-122.97" rx="179.96" ry="28.99"/>
<text xml:space="preserve" text-anchor="middle" x="656.2" y="-126.17" font-family="Times New Roman,serif" font-size="14.00">BIND</text>
<text xml:space="preserve" text-anchor="middle" x="656.2" y="-109.67" font-family="Times New Roman,serif" font-size="14.00">x→LAM(Var(&#39;z&#39;), EX(Var(&#39;z&#39;), Var(&#39;JAM&#39;)))</text>
</g>
<!-- SUB_0&#45;&gt;BIND_0 -->
<g id="edge2" class="edge">
<title>SUB_0&#45;&gt;BIND_0</title>
<path fill="none" stroke="black" d="M656.2,-187.61C656.2,-180.09 656.2,-171.83 656.2,-163.82"/>
<polygon fill="black" stroke="black" points="659.7,-163.9 656.2,-153.9 652.7,-163.9 659.7,-163.9"/>
</g>
<!-- NODE_0 -->
<g id="node4" class="node">
<title>NODE_0</title>
<ellipse fill="none" stroke="black" cx="656.2" cy="-28.99" rx="160.87" ry="28.99"/>
<text xml:space="preserve" text-anchor="middle" x="656.2" y="-32.19" font-family="Times New Roman,serif" font-size="14.00">NODE</text>
<text xml:space="preserve" text-anchor="middle" x="656.2" y="-15.69" font-family="Times New Roman,serif" font-size="14.00">NODE(Value(1), Var(&#39;MEM&#39;), Var(&#39;x&#39;))</text>
</g>
<!-- BIND_0&#45;&gt;NODE_0 -->
<g id="edge3" class="edge">
<title>BIND_0&#45;&gt;NODE_0</title>
<path fill="none" stroke="black" d="M656.2,-93.63C656.2,-86.11 656.2,-77.85 656.2,-69.84"/>
<polygon fill="black" stroke="black" points="659.7,-69.92 656.2,-59.92 652.7,-69.92 659.7,-69.92"/>
</g>
<!-- NODE_1 -->
<g id="node5" class="node">
<title>NODE_1</title>
<ellipse fill="none" stroke="black" cx="1582.2" cy="-310.94" rx="252.08" ry="28.99"/>
<text xml:space="preserve" text-anchor="middle" x="1582.2" y="-314.14" font-family="Times New Roman,serif" font-size="14.00">NODE</text>
<text xml:space="preserve" text-anchor="middle" x="1582.2" y="-297.64" font-family="Times New Roman,serif" font-size="14.00">NODE(Value(2), Var(&#39;EEX&#39;), APP(MEM(Var(&#39;x&#39;)), Value(42)))</text>
</g>
</g>
</svg>
