<?xml version="1.0" encoding="UTF-8" standalone="no"?>
<!DOCTYPE svg PUBLIC "-//W3C//DTD SVG 1.1//EN"
 "http://www.w3.org/Graphics/SVG/1.1/DTD/svg11.dtd">
<!-- Generated by graphviz version 13.0.1 (20250615.1724)
 -->
<!-- Pages: 1 -->
<svg width="96pt" height="282pt"
 viewBox="0.00 0.00 96.00 282.00" xmlns="http://www.w3.org/2000/svg" xmlns:xlink="http://www.w3.org/1999/xlink">
<g id="graph0" class="graph" transform="scale(1 1) rotate(0) translate(4 277.98)">
<polygon fill="white" stroke="none" points="-4,4 -4,-277.98 92.39,-277.98 92.39,4 -4,4"/>
<!-- ALIVE_0 -->
<g id="node1" class="node">
<title>ALIVE_0</title>
<ellipse fill="none" stroke="black" cx="44.19" cy="-100.99" rx="44.19" ry="28.99"/>
<text xml:space="preserve" text-anchor="middle" x="44.19" y="-104.19" font-family="Times New Roman,serif" font-size="14.00">ALIVE</text>
<text xml:space="preserve" text-anchor="middle" x="44.19" y="-87.69" font-family="Times New Roman,serif" font-size="14.00">Value(7)</text>
</g>
<!-- VAC_0 -->
<g id="node4" class="node">
<title>VAC_0</title>
<ellipse fill="none" stroke="black" cx="44.19" cy="-18" rx="38.56" ry="18"/>
<text xml:space="preserve" text-anchor="middle" x="44.19" y="-12.95" font-family="Times New Roman,serif" font-size="14.00">VAC_0</text>
</g>
<!-- ALIVE_0&#45;&gt;VAC_0 -->
<g id="edge3" class="edge">
<title>ALIVE_0&#45;&gt;VAC_0</title>
<path fill="none" stroke="black" d="M44.19,-71.66C44.19,-63.79 44.19,-55.24 44.19,-47.36"/>
<polygon fill="black" stroke="black" points="47.69,-47.61 44.19,-37.61 40.69,-47.61 47.69,-47.61"/>
</g>
<!-- JAM_0 -->
<g id="node2" class="node">
<title>JAM_0</title>
<ellipse fill="none" stroke="black" cx="44.19" cy="-255.98" rx="39.07" ry="18"/>
<text xml:space="preserve" text-anchor="middle" x="44.19" y="-250.93" font-family="Times New Roman,serif" font-size="14.00">JAM_0</text>
</g>
<!-- MEM_0 -->
<g id="node3" class="node">
<title>MEM_0</title>
<ellipse fill="none" stroke="black" cx="44.19" cy="-183.98" rx="43.16" ry="18"/>
<text xml:space="preserve" text-anchor="middle" x="44.19" y="-178.93" font-family="Times New Roman,serif" font-size="14.00">MEM_0</text>
</g>
<!-- JAM_0&#45;&gt;MEM_0 -->
<g id="edge1" class="edge">
<title>JAM_0&#45;&gt;MEM_0</title>
<path fill="none" stroke="black" d="M44.19,-237.68C44.19,-230.39 44.19,-221.71 44.19,-213.52"/>
<polygon fill="black" stroke="black" points="47.69,-213.6 44.19,-203.6 40.69,-213.6 47.69,-213.6"/>
</g>
<!-- MEM_0&#45;&gt;ALIVE_0 -->
<g id="edge2" class="edge">
<title>MEM_0&#45;&gt;ALIVE_0</title>
<path fill="none" stroke="black" d="M44.19,-165.81C44.19,-158.72 44.19,-150.19 44.19,-141.7"/>
<polygon fill="black" stroke="black" points="47.69,-141.81 44.19,-131.81 40.69,-141.81 47.69,-141.81"/>
</g>
</g>
</svg>
