<?xml version="1.0" encoding="UTF-8" standalone="no"?>
<!DOCTYPE svg PUBLIC "-//W3C//DTD SVG 1.1//EN"
 "http://www.w3.org/Graphics/SVG/1.1/DTD/svg11.dtd">
<!-- Generated by graphviz version 13.0.1 (20250615.1724)
 -->
<!-- Pages: 1 -->
<svg width="200pt" height="376pt"
 viewBox="0.00 0.00 200.00 376.00" xmlns="http://www.w3.org/2000/svg" xmlns:xlink="http://www.w3.org/1999/xlink">
<g id="graph0" class="graph" transform="scale(1 1) rotate(0) translate(4 371.97)">
<polygon fill="white" stroke="none" points="-4,4 -4,-371.97 196.33,-371.97 196.33,4 -4,4"/>
<!-- ALIVE_0 -->
<g id="node1" class="node">
<title>ALIVE_0</title>
<ellipse fill="none" stroke="black" cx="96.17" cy="-194.97" rx="39.95" ry="28.99"/>
<text xml:space="preserve" text-anchor="middle" x="96.17" y="-198.17" font-family="Times New Roman,serif" font-size="14.00">ALIVE</text>
<text xml:space="preserve" text-anchor="middle" x="96.17" y="-181.67" font-family="Times New Roman,serif" font-size="14.00">Var(&#39;x&#39;)</text>
</g>
<!-- VAC_0 -->
<g id="node5" class="node">
<title>VAC_0</title>
<ellipse fill="none" stroke="black" cx="96.17" cy="-111.98" rx="38.56" ry="18"/>
<text xml:space="preserve" text-anchor="middle" x="96.17" y="-106.93" font-family="Times New Roman,serif" font-size="14.00">VAC_0</text>
</g>
<!-- ALIVE_0&#45;&gt;VAC_0 -->
<g id="edge3" class="edge">
<title>ALIVE_0&#45;&gt;VAC_0</title>
<path fill="none" stroke="black" d="M96.17,-165.65C96.17,-157.77 96.17,-149.22 96.17,-141.34"/>
<polygon fill="black" stroke="black" points="99.67,-141.59 96.17,-131.59 92.67,-141.59 99.67,-141.59"/>
</g>
<!-- UNKNOWN_0 -->
<g id="node2" class="node">
<title>UNKNOWN_0</title>
<ellipse fill="none" stroke="black" cx="96.17" cy="-28.99" rx="96.17" ry="28.99"/>
<text xml:space="preserve" text-anchor="middle" x="96.17" y="-32.19" font-family="Times New Roman,serif" font-size="14.00">UNKNOWN</text>
<text xml:space="preserve" text-anchor="middle" x="96.17" y="-15.69" font-family="Times New Roman,serif" font-size="14.00">UNKNOWN(Var(&#39;x&#39;))</text>
</g>
<!-- JAM_0 -->
<g id="node3" class="node">
<title>JAM_0</title>
<ellipse fill="none" stroke="black" cx="96.17" cy="-349.97" rx="39.07" ry="18"/>
<text xml:space="preserve" text-anchor="middle" x="96.17" y="-344.92" font-family="Times New Roman,serif" font-size="14.00">JAM_0</text>
</g>
<!-- MEM_0 -->
<g id="node4" class="node">
<title>MEM_0</title>
<ellipse fill="none" stroke="black" cx="96.17" cy="-277.97" rx="43.16" ry="18"/>
<text xml:space="preserve" text-anchor="middle" x="96.17" y="-272.92" font-family="Times New Roman,serif" font-size="14.00">MEM_0</text>
</g>
<!-- JAM_0&#45;&gt;MEM_0 -->
<g id="edge1" class="edge">
<title>JAM_0&#45;&gt;MEM_0</title>
<path fill="none" stroke="black" d="M96.17,-331.66C96.17,-324.37 96.17,-315.69 96.17,-307.5"/>
<polygon fill="black" stroke="black" points="99.67,-307.58 96.17,-297.58 92.67,-307.58 99.67,-307.58"/>
</g>
<!-- MEM_0&#45;&gt;ALIVE_0 -->
<g id="edge2" class="edge">
<title>MEM_0&#45;&gt;ALIVE_0</title>
<path fill="none" stroke="black" d="M96.17,-259.79C96.17,-252.7 96.17,-244.17 96.17,-235.68"/>
<polygon fill="black" stroke="black" points="99.67,-235.79 96.17,-225.79 92.67,-235.79 99.67,-235.79"/>
</g>
<!-- VAC_0&#45;&gt;UNKNOWN_0 -->
<g id="edge4" class="edge">
<title>VAC_0&#45;&gt;UNKNOWN_0</title>
<path fill="none" stroke="black" d="M96.17,-93.81C96.17,-86.72 96.17,-78.19 96.17,-69.7"/>
<polygon fill="black" stroke="black" points="99.67,-69.81 96.17,-59.81 92.67,-69.81 99.67,-69.81"/>
</g>
</g>
</svg>
