<?xml version="1.0" encoding="UTF-8" standalone="no"?>
<!DOCTYPE svg PUBLIC "-//W3C//DTD SVG 1.1//EN"
 "http://www.w3.org/Graphics/SVG/1.1/DTD/svg11.dtd">
<!-- Generated by graphviz version 13.0.1 (20250615.1724)
 -->
<!-- Pages: 1 -->
<svg width="804pt" height="818pt"
 viewBox="0.00 0.00 804.00 818.00" xmlns="http://www.w3.org/2000/svg" xmlns:xlink="http://www.w3.org/1999/xlink">
<g id="graph0" class="graph" transform="scale(1 1) rotate(0) translate(4 813.84)">
<polygon fill="white" stroke="none" points="-4,4 -4,-813.84 800.09,-813.84 800.09,4 -4,4"/>
<!-- ROOT_0 -->
<g id="node1" class="node">
<title>ROOT_0</title>
<ellipse fill="none" stroke="black" cx="350.19" cy="-780.85" rx="350.19" ry="28.99"/>
<text xml:space="preserve" text-anchor="middle" x="350.19" y="-784.05" font-family="Times New Roman,serif" font-size="14.00">ROOT</text>
<text xml:space="preserve" text-anchor="middle" x="350.19" y="-767.55" font-family="Times New Roman,serif" font-size="14.00">ROOT(SUB(Var(&#39;x&#39;), EX(Var(&#39;y&#39;), Var(&#39;JAM&#39;))), NODE(Value(3), Var(&#39;MEM&#39;), Var(&#39;x&#39;)))</text>
</g>
<!-- SUB_0 -->
<g id="node2" class="node">
<title>SUB_0</title>
<ellipse fill="none" stroke="black" cx="350.19" cy="-686.87" rx="162.99" ry="28.99"/>
<text xml:space="preserve" text-anchor="middle" x="350.19" y="-690.07" font-family="Times New Roman,serif" font-size="14.00">SUB</text>
<text xml:space="preserve" text-anchor="middle" x="350.19" y="-673.57" font-family="Times New Roman,serif" font-size="14.00">SUB(Var(&#39;x&#39;), EX(Var(&#39;y&#39;), Var(&#39;JAM&#39;)))</text>
</g>
<!-- ROOT_0&#45;&gt;SUB_0 -->
<g id="edge1" class="edge">
<title>ROOT_0&#45;&gt;SUB_0</title>
<path fill="none" stroke="black" d="M350.19,-751.51C350.19,-743.99 350.19,-735.73 350.19,-727.72"/>
<polygon fill="black" stroke="black" points="353.69,-727.8 350.19,-717.8 346.69,-727.8 353.69,-727.8"/>
</g>
<!-- BIND_0 -->
<g id="node3" class="node">
<title>BIND_0</title>
<ellipse fill="none" stroke="black" cx="350.19" cy="-592.89" rx="120.03" ry="28.99"/>
<text xml:space="preserve" text-anchor="middle" x="350.19" y="-596.09" font-family="Times New Roman,serif" font-size="14.00">BIND</text>
<text xml:space="preserve" text-anchor="middle" x="350.19" y="-579.59" font-family="Times New Roman,serif" font-size="14.00">x→EX(Var(&#39;y&#39;), Var(&#39;JAM&#39;))</text>
</g>
<!-- SUB_0&#45;&gt;BIND_0 -->
<g id="edge2" class="edge">
<title>SUB_0&#45;&gt;BIND_0</title>
<path fill="none" stroke="black" d="M350.19,-657.52C350.19,-650 350.19,-641.74 350.19,-633.74"/>
<polygon fill="black" stroke="black" points="353.69,-633.81 350.19,-623.81 346.69,-633.81 353.69,-633.81"/>
</g>
<!-- NODE_0 -->
<g id="node4" class="node">
<title>NODE_0</title>
<ellipse fill="none" stroke="black" cx="350.19" cy="-498.91" rx="160.87" ry="28.99"/>
<text xml:space="preserve" text-anchor="middle" x="350.19" y="-502.11" font-family="Times New Roman,serif" font-size="14.00">NODE</text>
<text xml:space="preserve" text-anchor="middle" x="350.19" y="-485.61" font-family="Times New Roman,serif" font-size="14.00">NODE(Value(3), Var(&#39;MEM&#39;), Var(&#39;x&#39;))</text>
</g>
<!-- BIND_0&#45;&gt;NODE_0 -->
<g id="edge3" class="edge">
<title>BIND_0&#45;&gt;NODE_0</title>
<path fill="none" stroke="black" d="M350.19,-563.54C350.19,-556.02 350.19,-547.76 350.19,-539.75"/>
<polygon fill="black" stroke="black" points="353.69,-539.83 350.19,-529.83 346.69,-539.83 353.69,-539.83"/>
</g>
<!-- VALUE_0 -->
<g id="node5" class="node">
<title>VALUE_0</title>
<ellipse fill="none" stroke="black" cx="350.19" cy="-404.92" rx="44.19" ry="28.99"/>
<text xml:space="preserve" text-anchor="middle" x="350.19" y="-408.12" font-family="Times New Roman,serif" font-size="14.00">VALUE</text>
<text xml:space="preserve" text-anchor="middle" x="350.19" y="-391.62" font-family="Times New Roman,serif" font-size="14.00">Value(3)</text>
</g>
<!-- NODE_0&#45;&gt;VALUE_0 -->
<g id="edge4" class="edge">
<title>NODE_0&#45;&gt;VALUE_0</title>
<path fill="none" stroke="black" d="M350.19,-469.56C350.19,-462.04 350.19,-453.78 350.19,-445.77"/>
<polygon fill="black" stroke="black" points="353.69,-445.85 350.19,-435.85 346.69,-445.85 353.69,-445.85"/>
</g>
<!-- VAR_0 -->
<g id="node6" class="node">
<title>VAR_0</title>
<ellipse fill="none" stroke="black" cx="350.19" cy="-310.94" rx="57.98" ry="28.99"/>
<text xml:space="preserve" text-anchor="middle" x="350.19" y="-314.14" font-family="Times New Roman,serif" font-size="14.00">VAR</text>
<text xml:space="preserve" text-anchor="middle" x="350.19" y="-297.64" font-family="Times New Roman,serif" font-size="14.00">Var(&#39;MEM&#39;)</text>
</g>
<!-- VALUE_0&#45;&gt;VAR_0 -->
<g id="edge5" class="edge">
<title>VALUE_0&#45;&gt;VAR_0</title>
<path fill="none" stroke="black" d="M350.19,-375.57C350.19,-368.06 350.19,-359.79 350.19,-351.79"/>
<polygon fill="black" stroke="black" points="353.69,-351.87 350.19,-341.87 346.69,-351.87 353.69,-351.87"/>
</g>
<!-- UNBOUND_0 -->
<g id="node8" class="node">
<title>UNBOUND_0</title>
<ellipse fill="none" stroke="black" cx="350.19" cy="-216.96" rx="59.04" ry="28.99"/>
<text xml:space="preserve" text-anchor="middle" x="350.19" y="-220.16" font-family="Times New Roman,serif" font-size="14.00">UNBOUND</text>
<text xml:space="preserve" text-anchor="middle" x="350.19" y="-203.66" font-family="Times New Roman,serif" font-size="14.00">Var(&#39;MEM&#39;)</text>
</g>
<!-- VAR_0&#45;&gt;UNBOUND_0 -->
<g id="edge6" class="edge">
<title>VAR_0&#45;&gt;UNBOUND_0</title>
<path fill="none" stroke="black" d="M350.19,-281.59C350.19,-274.07 350.19,-265.81 350.19,-257.8"/>
<polygon fill="black" stroke="black" points="353.69,-257.88 350.19,-247.88 346.69,-257.88 353.69,-257.88"/>
</g>
<!-- VAR_1 -->
<g id="node7" class="node">
<title>VAR_1</title>
<ellipse fill="none" stroke="black" cx="757.19" cy="-780.85" rx="38.89" ry="28.99"/>
<text xml:space="preserve" text-anchor="middle" x="757.19" y="-784.05" font-family="Times New Roman,serif" font-size="14.00">VAR</text>
<text xml:space="preserve" text-anchor="middle" x="757.19" y="-767.55" font-family="Times New Roman,serif" font-size="14.00">Var(&#39;x&#39;)</text>
</g>
<!-- RESOLVE_0 -->
<g id="node9" class="node">
<title>RESOLVE_0</title>
<ellipse fill="none" stroke="black" cx="350.19" cy="-122.97" rx="120.03" ry="28.99"/>
<text xml:space="preserve" text-anchor="middle" x="350.19" y="-126.17" font-family="Times New Roman,serif" font-size="14.00">RESOLVE</text>
<text xml:space="preserve" text-anchor="middle" x="350.19" y="-109.67" font-family="Times New Roman,serif" font-size="14.00">x→EX(Var(&#39;y&#39;), Var(&#39;JAM&#39;))</text>
</g>
<!-- UNBOUND_0&#45;&gt;RESOLVE_0 -->
<g id="edge7" class="edge">
<title>UNBOUND_0&#45;&gt;RESOLVE_0</title>
<path fill="none" stroke="black" d="M350.19,-187.61C350.19,-180.09 350.19,-171.83 350.19,-163.82"/>
<polygon fill="black" stroke="black" points="353.69,-163.9 350.19,-153.9 346.69,-163.9 353.69,-163.9"/>
</g>
<!-- EX_0 -->
<g id="node10" class="node">
<title>EX_0</title>
<ellipse fill="none" stroke="black" cx="350.19" cy="-28.99" rx="105.18" ry="28.99"/>
<text xml:space="preserve" text-anchor="middle" x="350.19" y="-32.19" font-family="Times New Roman,serif" font-size="14.00">EX</text>
<text xml:space="preserve" text-anchor="middle" x="350.19" y="-15.69" font-family="Times New Roman,serif" font-size="14.00">EX(Var(&#39;y&#39;), Var(&#39;JAM&#39;))</text>
</g>
<!-- RESOLVE_0&#45;&gt;EX_0 -->
<g id="edge8" class="edge">
<title>RESOLVE_0&#45;&gt;EX_0</title>
<path fill="none" stroke="black" d="M350.19,-93.63C350.19,-86.11 350.19,-77.85 350.19,-69.84"/>
<polygon fill="black" stroke="black" points="353.69,-69.92 350.19,-59.92 346.69,-69.92 353.69,-69.92"/>
</g>
</g>
</svg>
