<?xml version="1.0" encoding="UTF-8" standalone="no"?>
<!DOCTYPE svg PUBLIC "-//W3C//DTD SVG 1.1//EN"
 "http://www.w3.org/Graphics/SVG/1.1/DTD/svg11.dtd">
<!-- Generated by graphviz version 13.0.1 (20250615.1724)
 -->
<!-- Pages: 1 -->
<svg width="614pt" height="536pt"
 viewBox="0.00 0.00 614.00 536.00" xmlns="http://www.w3.org/2000/svg" xmlns:xlink="http://www.w3.org/1999/xlink">
<g id="graph0" class="graph" transform="scale(1 1) rotate(0) translate(4 531.9)">
<polygon fill="white" stroke="none" points="-4,4 -4,-531.9 609.99,-531.9 609.99,4 -4,4"/>
<!-- ROOT_0 -->
<g id="node1" class="node">
<title>ROOT_0</title>
<ellipse fill="none" stroke="black" cx="303" cy="-498.91" rx="303" ry="28.99"/>
<text xml:space="preserve" text-anchor="middle" x="303" y="-502.11" font-family="Times New Roman,serif" font-size="14.00">ROOT</text>
<text xml:space="preserve" text-anchor="middle" x="303" y="-485.61" font-family="Times New Roman,serif" font-size="14.00">ROOT(SUB(Var(&#39;x&#39;), Value(42)), NODE(Value(1), EEX(), MEM(Var(&#39;x&#39;))))</text>
</g>
<!-- SUB_0 -->
<g id="node2" class="node">
<title>SUB_0</title>
<ellipse fill="none" stroke="black" cx="303" cy="-404.92" rx="106.24" ry="28.99"/>
<text xml:space="preserve" text-anchor="middle" x="303" y="-408.12" font-family="Times New Roman,serif" font-size="14.00">SUB</text>
<text xml:space="preserve" text-anchor="middle" x="303" y="-391.62" font-family="Times New Roman,serif" font-size="14.00">SUB(Var(&#39;x&#39;), Value(42))</text>
</g>
<!-- ROOT_0&#45;&gt;SUB_0 -->
<g id="edge1" class="edge">
<title>ROOT_0&#45;&gt;SUB_0</title>
<path fill="none" stroke="black" d="M303,-469.56C303,-462.04 303,-453.78 303,-445.77"/>
<polygon fill="black" stroke="black" points="306.5,-445.85 303,-435.85 299.5,-445.85 306.5,-445.85"/>
</g>
<!-- NODE_0 -->
<g id="node3" class="node">
<title>NODE_0</title>
<ellipse fill="none" stroke="black" cx="303" cy="-310.94" rx="170.41" ry="28.99"/>
<text xml:space="preserve" text-anchor="middle" x="303" y="-314.14" font-family="Times New Roman,serif" font-size="14.00">NODE</text>
<text xml:space="preserve" text-anchor="middle" x="303" y="-297.64" font-family="Times New Roman,serif" font-size="14.00">NODE(Value(1), EEX(), MEM(Var(&#39;x&#39;)))</text>
</g>
<!-- SUB_0&#45;&gt;NODE_0 -->
<g id="edge2" class="edge">
<title>SUB_0&#45;&gt;NODE_0</title>
<path fill="none" stroke="black" d="M303,-375.57C303,-368.06 303,-359.79 303,-351.79"/>
<polygon fill="black" stroke="black" points="306.5,-351.87 303,-341.87 299.5,-351.87 306.5,-351.87"/>
</g>
<!-- ALIVE_0 -->
<g id="node4" class="node">
<title>ALIVE_0</title>
<ellipse fill="none" stroke="black" cx="303" cy="-216.96" rx="44.19" ry="28.99"/>
<text xml:space="preserve" text-anchor="middle" x="303" y="-220.16" font-family="Times New Roman,serif" font-size="14.00">ALIVE</text>
<text xml:space="preserve" text-anchor="middle" x="303" y="-203.66" font-family="Times New Roman,serif" font-size="14.00">Value(1)</text>
</g>
<!-- NODE_0&#45;&gt;ALIVE_0 -->
<g id="edge3" class="edge">
<title>NODE_0&#45;&gt;ALIVE_0</title>
<path fill="none" stroke="black" d="M303,-281.59C303,-274.07 303,-265.81 303,-257.8"/>
<polygon fill="black" stroke="black" points="306.5,-257.88 303,-247.88 299.5,-257.88 306.5,-257.88"/>
</g>
<!-- EEX_0 -->
<g id="node5" class="node">
<title>EEX_0</title>
<ellipse fill="none" stroke="black" cx="303" cy="-122.97" rx="36.24" ry="28.99"/>
<text xml:space="preserve" text-anchor="middle" x="303" y="-126.17" font-family="Times New Roman,serif" font-size="14.00">EEX</text>
<text xml:space="preserve" text-anchor="middle" x="303" y="-109.67" font-family="Times New Roman,serif" font-size="14.00">EEX()</text>
</g>
<!-- ALIVE_0&#45;&gt;EEX_0 -->
<g id="edge4" class="edge">
<title>ALIVE_0&#45;&gt;EEX_0</title>
<path fill="none" stroke="black" d="M303,-187.61C303,-180.09 303,-171.83 303,-163.82"/>
<polygon fill="black" stroke="black" points="306.5,-163.9 303,-153.9 299.5,-163.9 306.5,-163.9"/>
</g>
<!-- MEM_0 -->
<g id="node6" class="node">
<title>MEM_0</title>
<ellipse fill="none" stroke="black" cx="303" cy="-28.99" rx="69.12" ry="28.99"/>
<text xml:space="preserve" text-anchor="middle" x="303" y="-32.19" font-family="Times New Roman,serif" font-size="14.00">MEM</text>
<text xml:space="preserve" text-anchor="middle" x="303" y="-15.69" font-family="Times New Roman,serif" font-size="14.00">MEM(Var(&#39;x&#39;))</text>
</g>
<!-- EEX_0&#45;&gt;MEM_0 -->
<g id="edge5" class="edge">
<title>EEX_0&#45;&gt;MEM_0</title>
<path fill="none" stroke="black" d="M303,-93.63C303,-86.11 303,-77.85 303,-69.84"/>
<polygon fill="black" stroke="black" points="306.5,-69.92 303,-59.92 299.5,-69.92 306.5,-69.92"/>
</g>
</g>
</svg>
