<?xml version="1.0" encoding="UTF-8" standalone="no"?>
<!DOCTYPE svg PUBLIC "-//W3C//DTD SVG 1.1//EN"
 "http://www.w3.org/Graphics/SVG/1.1/DTD/svg11.dtd">
<!-- Generated by graphviz version 13.0.1 (20250615.1724)
 -->
<!-- Pages: 1 -->
<svg width="528pt" height="608pt"
 viewBox="0.00 0.00 528.00 608.00" xmlns="http://www.w3.org/2000/svg" xmlns:xlink="http://www.w3.org/1999/xlink">
<g id="graph0" class="graph" transform="scale(1 1) rotate(0) translate(4 603.9)">
<polygon fill="white" stroke="none" points="-4,4 -4,-603.9 524.08,-603.9 524.08,4 -4,4"/>
<!-- JAM_0 -->
<g id="node1" class="node">
<title>JAM_0</title>
<ellipse fill="none" stroke="black" cx="260.04" cy="-570.91" rx="37.3" ry="28.99"/>
<text xml:space="preserve" text-anchor="middle" x="260.04" y="-574.11" font-family="Times New Roman,serif" font-size="14.00">JAM</text>
<text xml:space="preserve" text-anchor="middle" x="260.04" y="-557.61" font-family="Times New Roman,serif" font-size="14.00">JAM()</text>
</g>
<!-- MEM_0 -->
<g id="node2" class="node">
<title>MEM_0</title>
<ellipse fill="none" stroke="black" cx="260.04" cy="-476.92" rx="41.54" ry="28.99"/>
<text xml:space="preserve" text-anchor="middle" x="260.04" y="-480.12" font-family="Times New Roman,serif" font-size="14.00">MEM</text>
<text xml:space="preserve" text-anchor="middle" x="260.04" y="-463.62" font-family="Times New Roman,serif" font-size="14.00">MEM()</text>
</g>
<!-- JAM_0&#45;&gt;MEM_0 -->
<g id="edge1" class="edge">
<title>JAM_0&#45;&gt;MEM_0</title>
<path fill="none" stroke="black" d="M260.04,-541.56C260.04,-534.04 260.04,-525.78 260.04,-517.77"/>
<polygon fill="black" stroke="black" points="263.54,-517.85 260.04,-507.85 256.54,-517.85 263.54,-517.85"/>
</g>
<!-- ALIVE_0 -->
<g id="node3" class="node">
<title>ALIVE_0</title>
<ellipse fill="none" stroke="black" cx="260.04" cy="-382.94" rx="39.95" ry="28.99"/>
<text xml:space="preserve" text-anchor="middle" x="260.04" y="-386.14" font-family="Times New Roman,serif" font-size="14.00">ALIVE</text>
<text xml:space="preserve" text-anchor="middle" x="260.04" y="-369.64" font-family="Times New Roman,serif" font-size="14.00">Var(&#39;x&#39;)</text>
</g>
<!-- MEM_0&#45;&gt;ALIVE_0 -->
<g id="edge2" class="edge">
<title>MEM_0&#45;&gt;ALIVE_0</title>
<path fill="none" stroke="black" d="M260.04,-447.57C260.04,-440.06 260.04,-431.79 260.04,-423.79"/>
<polygon fill="black" stroke="black" points="263.54,-423.87 260.04,-413.87 256.54,-423.87 263.54,-423.87"/>
</g>
<!-- VAC_0 -->
<g id="node9" class="node">
<title>VAC_0</title>
<ellipse fill="none" stroke="black" cx="260.04" cy="-299.95" rx="38.56" ry="18"/>
<text xml:space="preserve" text-anchor="middle" x="260.04" y="-294.9" font-family="Times New Roman,serif" font-size="14.00">VAC_0</text>
</g>
<!-- ALIVE_0&#45;&gt;VAC_0 -->
<g id="edge3" class="edge">
<title>ALIVE_0&#45;&gt;VAC_0</title>
<path fill="none" stroke="black" d="M260.04,-353.61C260.04,-345.74 260.04,-337.18 260.04,-329.31"/>
<polygon fill="black" stroke="black" points="263.54,-329.56 260.04,-319.56 256.54,-329.56 263.54,-329.56"/>
</g>
<!-- ALIVE_1 -->
<g id="node4" class="node">
<title>ALIVE_1</title>
<ellipse fill="none" stroke="black" cx="359.04" cy="-570.91" rx="44.19" ry="28.99"/>
<text xml:space="preserve" text-anchor="middle" x="359.04" y="-574.11" font-family="Times New Roman,serif" font-size="14.00">ALIVE</text>
<text xml:space="preserve" text-anchor="middle" x="359.04" y="-557.61" font-family="Times New Roman,serif" font-size="14.00">Value(3)</text>
</g>
<!-- ALIVE_2 -->
<g id="node5" class="node">
<title>ALIVE_2</title>
<ellipse fill="none" stroke="black" cx="461.04" cy="-570.91" rx="39.95" ry="28.99"/>
<text xml:space="preserve" text-anchor="middle" x="461.04" y="-574.11" font-family="Times New Roman,serif" font-size="14.00">ALIVE</text>
<text xml:space="preserve" text-anchor="middle" x="461.04" y="-557.61" font-family="Times New Roman,serif" font-size="14.00">Var(&#39;z&#39;)</text>
</g>
<!-- ROOT_0 -->
<g id="node6" class="node">
<title>ROOT_0</title>
<ellipse fill="none" stroke="black" cx="260.04" cy="-216.96" rx="260.04" ry="28.99"/>
<text xml:space="preserve" text-anchor="middle" x="260.04" y="-220.16" font-family="Times New Roman,serif" font-size="14.00">ROOT</text>
<text xml:space="preserve" text-anchor="middle" x="260.04" y="-203.66" font-family="Times New Roman,serif" font-size="14.00">ROOT(EX(Var(&#39;x&#39;), JAM()), NODE(Value(3), MEM(), Var(&#39;z&#39;)))</text>
</g>
<!-- EX_0 -->
<g id="node7" class="node">
<title>EX_0</title>
<ellipse fill="none" stroke="black" cx="260.04" cy="-122.97" rx="89.27" ry="28.99"/>
<text xml:space="preserve" text-anchor="middle" x="260.04" y="-126.17" font-family="Times New Roman,serif" font-size="14.00">EX</text>
<text xml:space="preserve" text-anchor="middle" x="260.04" y="-109.67" font-family="Times New Roman,serif" font-size="14.00">EX(Var(&#39;x&#39;), JAM())</text>
</g>
<!-- ROOT_0&#45;&gt;EX_0 -->
<g id="edge5" class="edge">
<title>ROOT_0&#45;&gt;EX_0</title>
<path fill="none" stroke="black" d="M260.04,-187.61C260.04,-180.09 260.04,-171.83 260.04,-163.82"/>
<polygon fill="black" stroke="black" points="263.54,-163.9 260.04,-153.9 256.54,-163.9 263.54,-163.9"/>
</g>
<!-- NODE_0 -->
<g id="node8" class="node">
<title>NODE_0</title>
<ellipse fill="none" stroke="black" cx="260.04" cy="-28.99" rx="144.43" ry="28.99"/>
<text xml:space="preserve" text-anchor="middle" x="260.04" y="-32.19" font-family="Times New Roman,serif" font-size="14.00">NODE</text>
<text xml:space="preserve" text-anchor="middle" x="260.04" y="-15.69" font-family="Times New Roman,serif" font-size="14.00">NODE(Value(3), MEM(), Var(&#39;z&#39;))</text>
</g>
<!-- EX_0&#45;&gt;NODE_0 -->
<g id="edge6" class="edge">
<title>EX_0&#45;&gt;NODE_0</title>
<path fill="none" stroke="black" d="M260.04,-93.63C260.04,-86.11 260.04,-77.85 260.04,-69.84"/>
<polygon fill="black" stroke="black" points="263.54,-69.92 260.04,-59.92 256.54,-69.92 263.54,-69.92"/>
</g>
<!-- VAC_0&#45;&gt;ROOT_0 -->
<g id="edge4" class="edge">
<title>VAC_0&#45;&gt;ROOT_0</title>
<path fill="none" stroke="black" d="M260.04,-281.77C260.04,-274.69 260.04,-266.15 260.04,-257.67"/>
<polygon fill="black" stroke="black" points="263.54,-257.78 260.04,-247.78 256.54,-257.78 263.54,-257.78"/>
</g>
</g>
</svg>
