<?xml version="1.0" encoding="UTF-8" standalone="no"?>
<!DOCTYPE svg PUBLIC "-//W3C//DTD SVG 1.1//EN"
 "http://www.w3.org/Graphics/SVG/1.1/DTD/svg11.dtd">
<!-- Generated by graphviz version 13.0.1 (20250615.1724)
 -->
<!-- Pages: 1 -->
<svg width="826pt" height="348pt"
 viewBox="0.00 0.00 826.00 348.00" xmlns="http://www.w3.org/2000/svg" xmlns:xlink="http://www.w3.org/1999/xlink">
<g id="graph0" class="graph" transform="scale(1 1) rotate(0) translate(4 343.93)">
<polygon fill="white" stroke="none" points="-4,4 -4,-343.93 822.4,-343.93 822.4,4 -4,4"/>
<!-- ROOT_0 -->
<g id="node1" class="node">
<title>ROOT_0</title>
<ellipse fill="none" stroke="black" cx="293.45" cy="-310.94" rx="293.45" ry="28.99"/>
<text xml:space="preserve" text-anchor="middle" x="293.45" y="-314.14" font-family="Times New Roman,serif" font-size="14.00">ROOT</text>
<text xml:space="preserve" text-anchor="middle" x="293.45" y="-297.64" font-family="Times New Roman,serif" font-size="14.00">ROOT(SUB(Var(&#39;x&#39;), Value(42)), NODE(Value(3), Var(&#39;MEM&#39;), Var(&#39;x&#39;)))</text>
</g>
<!-- SUB_0 -->
<g id="node2" class="node">
<title>SUB_0</title>
<ellipse fill="none" stroke="black" cx="293.45" cy="-216.96" rx="106.24" ry="28.99"/>
<text xml:space="preserve" text-anchor="middle" x="293.45" y="-220.16" font-family="Times New Roman,serif" font-size="14.00">SUB</text>
<text xml:space="preserve" text-anchor="middle" x="293.45" y="-203.66" font-family="Times New Roman,serif" font-size="14.00">SUB(Var(&#39;x&#39;), Value(42))</text>
</g>
<!-- ROOT_0&#45;&gt;SUB_0 -->
<g id="edge1" class="edge">
<title>ROOT_0&#45;&gt;SUB_0</title>
<path fill="none" stroke="black" d="M293.45,-281.59C293.45,-274.07 293.45,-265.81 293.45,-257.8"/>
<polygon fill="black" stroke="black" points="296.95,-257.88 293.45,-247.88 289.95,-257.88 296.95,-257.88"/>
</g>
<!-- NODE_0 -->
<g id="node3" class="node">
<title>NODE_0</title>
<ellipse fill="none" stroke="black" cx="293.45" cy="-122.97" rx="160.87" ry="28.99"/>
<text xml:space="preserve" text-anchor="middle" x="293.45" y="-126.17" font-family="Times New Roman,serif" font-size="14.00">NODE</text>
<text xml:space="preserve" text-anchor="middle" x="293.45" y="-109.67" font-family="Times New Roman,serif" font-size="14.00">NODE(Value(3), Var(&#39;MEM&#39;), Var(&#39;x&#39;))</text>
</g>
<!-- SUB_0&#45;&gt;NODE_0 -->
<g id="edge2" class="edge">
<title>SUB_0&#45;&gt;NODE_0</title>
<path fill="none" stroke="black" d="M293.45,-187.61C293.45,-180.09 293.45,-171.83 293.45,-163.82"/>
<polygon fill="black" stroke="black" points="296.95,-163.9 293.45,-153.9 289.95,-163.9 296.95,-163.9"/>
</g>
<!-- ALIVE_0 -->
<g id="node4" class="node">
<title>ALIVE_0</title>
<ellipse fill="none" stroke="black" cx="293.45" cy="-28.99" rx="44.19" ry="28.99"/>
<text xml:space="preserve" text-anchor="middle" x="293.45" y="-32.19" font-family="Times New Roman,serif" font-size="14.00">ALIVE</text>
<text xml:space="preserve" text-anchor="middle" x="293.45" y="-15.69" font-family="Times New Roman,serif" font-size="14.00">Value(3)</text>
</g>
<!-- NODE_0&#45;&gt;ALIVE_0 -->
<g id="edge3" class="edge">
<title>NODE_0&#45;&gt;ALIVE_0</title>
<path fill="none" stroke="black" d="M293.45,-93.63C293.45,-86.11 293.45,-77.85 293.45,-69.84"/>
<polygon fill="black" stroke="black" points="296.95,-69.92 293.45,-59.92 289.95,-69.92 296.95,-69.92"/>
</g>
<!-- ALIVE_1 -->
<g id="node5" class="node">
<title>ALIVE_1</title>
<ellipse fill="none" stroke="black" cx="662.45" cy="-310.94" rx="57.98" ry="28.99"/>
<text xml:space="preserve" text-anchor="middle" x="662.45" y="-314.14" font-family="Times New Roman,serif" font-size="14.00">ALIVE</text>
<text xml:space="preserve" text-anchor="middle" x="662.45" y="-297.64" font-family="Times New Roman,serif" font-size="14.00">Var(&#39;MEM&#39;)</text>
</g>
<!-- ALIVE_2 -->
<g id="node6" class="node">
<title>ALIVE_2</title>
<ellipse fill="none" stroke="black" cx="778.45" cy="-310.94" rx="39.95" ry="28.99"/>
<text xml:space="preserve" text-anchor="middle" x="778.45" y="-314.14" font-family="Times New Roman,serif" font-size="14.00">ALIVE</text>
<text xml:space="preserve" text-anchor="middle" x="778.45" y="-297.64" font-family="Times New Roman,serif" font-size="14.00">Var(&#39;x&#39;)</text>
</g>
</g>
</svg>
