<?xml version="1.0" encoding="UTF-8" standalone="no"?>
<!DOCTYPE svg PUBLIC "-//W3C//DTD SVG 1.1//EN"
 "http://www.w3.org/Graphics/SVG/1.1/DTD/svg11.dtd">
<!-- Generated by graphviz version 13.0.1 (20250615.1724)
 -->
<!-- Pages: 1 -->
<svg width="307pt" height="420pt"
 viewBox="0.00 0.00 307.00 420.00" xmlns="http://www.w3.org/2000/svg" xmlns:xlink="http://www.w3.org/1999/xlink">
<g id="graph0" class="graph" transform="scale(1 1) rotate(0) translate(4 415.93)">
<polygon fill="white" stroke="none" points="-4,4 -4,-415.93 303.46,-415.93 303.46,4 -4,4"/>
<!-- MEM_0 -->
<g id="node1" class="node">
<title>MEM_0</title>
<ellipse fill="none" stroke="black" cx="149.73" cy="-288.96" rx="41.54" ry="28.99"/>
<text xml:space="preserve" text-anchor="middle" x="149.73" y="-292.16" font-family="Times New Roman,serif" font-size="14.00">MEM</text>
<text xml:space="preserve" text-anchor="middle" x="149.73" y="-275.66" font-family="Times New Roman,serif" font-size="14.00">MEM()</text>
</g>
<!-- ALIVE_0 -->
<g id="node2" class="node">
<title>ALIVE_0</title>
<ellipse fill="none" stroke="black" cx="149.73" cy="-194.97" rx="48.97" ry="28.99"/>
<text xml:space="preserve" text-anchor="middle" x="149.73" y="-198.17" font-family="Times New Roman,serif" font-size="14.00">ALIVE</text>
<text xml:space="preserve" text-anchor="middle" x="149.73" y="-181.67" font-family="Times New Roman,serif" font-size="14.00">Value(42)</text>
</g>
<!-- MEM_0&#45;&gt;ALIVE_0 -->
<g id="edge2" class="edge">
<title>MEM_0&#45;&gt;ALIVE_0</title>
<path fill="none" stroke="black" d="M149.73,-259.61C149.73,-252.09 149.73,-243.83 149.73,-235.82"/>
<polygon fill="black" stroke="black" points="153.23,-235.9 149.73,-225.9 146.23,-235.9 153.23,-235.9"/>
</g>
<!-- VAC_0 -->
<g id="node6" class="node">
<title>VAC_0</title>
<ellipse fill="none" stroke="black" cx="149.73" cy="-111.98" rx="38.56" ry="18"/>
<text xml:space="preserve" text-anchor="middle" x="149.73" y="-106.93" font-family="Times New Roman,serif" font-size="14.00">VAC_0</text>
</g>
<!-- ALIVE_0&#45;&gt;VAC_0 -->
<g id="edge3" class="edge">
<title>ALIVE_0&#45;&gt;VAC_0</title>
<path fill="none" stroke="black" d="M149.73,-165.65C149.73,-157.77 149.73,-149.22 149.73,-141.34"/>
<polygon fill="black" stroke="black" points="153.23,-141.59 149.73,-131.59 146.23,-141.59 153.23,-141.59"/>
</g>
<!-- ALIVE_1 -->
<g id="node3" class="node">
<title>ALIVE_1</title>
<ellipse fill="none" stroke="black" cx="246.73" cy="-382.94" rx="39.95" ry="28.99"/>
<text xml:space="preserve" text-anchor="middle" x="246.73" y="-386.14" font-family="Times New Roman,serif" font-size="14.00">ALIVE</text>
<text xml:space="preserve" text-anchor="middle" x="246.73" y="-369.64" font-family="Times New Roman,serif" font-size="14.00">Var(&#39;y&#39;)</text>
</g>
<!-- NODE_0 -->
<g id="node4" class="node">
<title>NODE_0</title>
<ellipse fill="none" stroke="black" cx="149.73" cy="-28.99" rx="149.73" ry="28.99"/>
<text xml:space="preserve" text-anchor="middle" x="149.73" y="-32.19" font-family="Times New Roman,serif" font-size="14.00">NODE</text>
<text xml:space="preserve" text-anchor="middle" x="149.73" y="-15.69" font-family="Times New Roman,serif" font-size="14.00">NODE(Value(42), MEM(), Var(&#39;y&#39;))</text>
</g>
<!-- JAM_0 -->
<g id="node5" class="node">
<title>JAM_0</title>
<ellipse fill="none" stroke="black" cx="149.73" cy="-382.94" rx="39.07" ry="18"/>
<text xml:space="preserve" text-anchor="middle" x="149.73" y="-377.89" font-family="Times New Roman,serif" font-size="14.00">JAM_0</text>
</g>
<!-- JAM_0&#45;&gt;MEM_0 -->
<g id="edge1" class="edge">
<title>JAM_0&#45;&gt;MEM_0</title>
<path fill="none" stroke="black" d="M149.73,-364.64C149.73,-354.78 149.73,-341.99 149.73,-329.79"/>
<polygon fill="black" stroke="black" points="153.23,-329.9 149.73,-319.9 146.23,-329.9 153.23,-329.9"/>
</g>
<!-- VAC_0&#45;&gt;NODE_0 -->
<g id="edge4" class="edge">
<title>VAC_0&#45;&gt;NODE_0</title>
<path fill="none" stroke="black" d="M149.73,-93.81C149.73,-86.72 149.73,-78.19 149.73,-69.7"/>
<polygon fill="black" stroke="black" points="153.23,-69.81 149.73,-59.81 146.23,-69.81 153.23,-69.81"/>
</g>
</g>
</svg>
