<?xml version="1.0" encoding="UTF-8" standalone="no"?>
<!DOCTYPE svg PUBLIC "-//W3C//DTD SVG 1.1//EN"
 "http://www.w3.org/Graphics/SVG/1.1/DTD/svg11.dtd">
<!-- Generated by graphviz version 13.0.1 (20250615.1724)
 -->
<!-- Pages: 1 -->
<svg width="473pt" height="348pt"
 viewBox="0.00 0.00 473.00 348.00" xmlns="http://www.w3.org/2000/svg" xmlns:xlink="http://www.w3.org/1999/xlink">
<g id="graph0" class="graph" transform="scale(1 1) rotate(0) translate(4 343.93)">
<polygon fill="white" stroke="none" points="-4,4 -4,-343.93 468.92,-343.93 468.92,4 -4,4"/>
<!-- APP_0 -->
<g id="node1" class="node">
<title>APP_0</title>
<ellipse fill="none" stroke="black" cx="232.46" cy="-310.94" rx="232.46" ry="28.99"/>
<text xml:space="preserve" text-anchor="middle" x="232.46" y="-314.14" font-family="Times New Roman,serif" font-size="14.00">APP</text>
<text xml:space="preserve" text-anchor="middle" x="232.46" y="-297.64" font-family="Times New Roman,serif" font-size="14.00">APP(LAM(Var(&#39;x&#39;), EX(Var(&#39;x&#39;), Var(&#39;JAM&#39;))), Value(42))</text>
</g>
<!-- LAM_0 -->
<g id="node2" class="node">
<title>LAM_0</title>
<ellipse fill="none" stroke="black" cx="232.46" cy="-216.96" rx="166.17" ry="28.99"/>
<text xml:space="preserve" text-anchor="middle" x="232.46" y="-220.16" font-family="Times New Roman,serif" font-size="14.00">LAM</text>
<text xml:space="preserve" text-anchor="middle" x="232.46" y="-203.66" font-family="Times New Roman,serif" font-size="14.00">LAM(Var(&#39;x&#39;), EX(Var(&#39;x&#39;), Var(&#39;JAM&#39;)))</text>
</g>
<!-- APP_0&#45;&gt;LAM_0 -->
<g id="edge1" class="edge">
<title>APP_0&#45;&gt;LAM_0</title>
<path fill="none" stroke="black" d="M232.46,-281.59C232.46,-274.07 232.46,-265.81 232.46,-257.8"/>
<polygon fill="black" stroke="black" points="235.96,-257.88 232.46,-247.88 228.96,-257.88 235.96,-257.88"/>
</g>
<!-- VAL_0 -->
<g id="node3" class="node">
<title>VAL_0</title>
<ellipse fill="none" stroke="black" cx="232.46" cy="-122.97" rx="48.97" ry="28.99"/>
<text xml:space="preserve" text-anchor="middle" x="232.46" y="-126.17" font-family="Times New Roman,serif" font-size="14.00">VAL</text>
<text xml:space="preserve" text-anchor="middle" x="232.46" y="-109.67" font-family="Times New Roman,serif" font-size="14.00">Value(42)</text>
</g>
<!-- LAM_0&#45;&gt;VAL_0 -->
<g id="edge2" class="edge">
<title>LAM_0&#45;&gt;VAL_0</title>
<path fill="none" stroke="black" d="M232.46,-187.61C232.46,-180.09 232.46,-171.83 232.46,-163.82"/>
<polygon fill="black" stroke="black" points="235.96,-163.9 232.46,-153.9 228.96,-163.9 235.96,-163.9"/>
</g>
<!-- EX_0 -->
<g id="node4" class="node">
<title>EX_0</title>
<ellipse fill="none" stroke="black" cx="232.46" cy="-28.99" rx="149.73" ry="28.99"/>
<text xml:space="preserve" text-anchor="middle" x="232.46" y="-32.19" font-family="Times New Roman,serif" font-size="14.00">EX</text>
<text xml:space="preserve" text-anchor="middle" x="232.46" y="-15.69" font-family="Times New Roman,serif" font-size="14.00">EX(&lt;State.ALIVE: 1&gt;, Var(&#39;JAM&#39;))</text>
</g>
<!-- VAL_0&#45;&gt;EX_0 -->
<g id="edge3" class="edge">
<title>VAL_0&#45;&gt;EX_0</title>
<path fill="none" stroke="black" d="M232.46,-93.63C232.46,-86.11 232.46,-77.85 232.46,-69.84"/>
<polygon fill="black" stroke="black" points="235.96,-69.92 232.46,-59.92 228.96,-69.92 235.96,-69.92"/>
</g>
</g>
</svg>
